<?xml version="1.0" standalone="no"?>
<!DOCTYPE svg PUBLIC "-//W3C//DTD SVG 20010904//EN"
 "http://www.w3.org/TR/2001/REC-SVG-20010904/DTD/svg10.dtd">
<svg version="1.0" xmlns="http://www.w3.org/2000/svg"
 width="1024.000000pt" height="606.000000pt" viewBox="0 0 1024.000000 606.000000"
 preserveAspectRatio="xMidYMid meet">

<g transform="translate(0.000000,606.000000) scale(0.100000,-0.100000)"
fill="#000000" stroke="none">
<path d="M156 6045 c15 -38 65 -40 85 -4 9 17 6 19 -40 19 -41 0 -49 -3 -45
-15z"/>
<path d="M556 6045 c15 -38 65 -40 85 -4 9 17 6 19 -40 19 -41 0 -49 -3 -45
-15z"/>
<path d="M956 6045 c15 -38 65 -40 85 -4 9 17 6 19 -40 19 -41 0 -49 -3 -45
-15z"/>
<path d="M1356 6045 c15 -38 65 -40 85 -4 9 17 6 19 -40 19 -41 0 -49 -3 -45
-15z"/>
<path d="M1756 6045 c15 -38 65 -40 85 -4 9 17 6 19 -40 19 -41 0 -49 -3 -45
-15z"/>
<path d="M2156 6045 c15 -38 65 -40 85 -4 9 17 6 19 -40 19 -41 0 -49 -3 -45
-15z"/>
<path d="M2556 6045 c15 -38 65 -40 85 -4 9 17 6 19 -40 19 -41 0 -49 -3 -45
-15z"/>
<path d="M2956 6045 c15 -38 65 -40 85 -4 9 17 6 19 -40 19 -41 0 -49 -3 -45
-15z"/>
<path d="M3356 6045 c15 -38 65 -40 85 -4 9 17 6 19 -40 19 -41 0 -49 -3 -45
-15z"/>
<path d="M3756 6045 c15 -38 65 -40 85 -4 9 17 6 19 -40 19 -41 0 -49 -3 -45
-15z"/>
<path d="M4156 6045 c15 -38 65 -40 85 -4 9 17 6 19 -40 19 -41 0 -49 -3 -45
-15z"/>
<path d="M4556 6045 c15 -38 65 -40 85 -4 9 17 6 19 -40 19 -41 0 -49 -3 -45
-15z"/>
<path d="M4956 6045 c15 -38 65 -40 85 -4 9 17 6 19 -40 19 -41 0 -49 -3 -45
-15z"/>
<path d="M5356 6045 c15 -38 65 -40 85 -4 9 17 6 19 -40 19 -41 0 -49 -3 -45
-15z"/>
<path d="M5756 6045 c15 -38 65 -40 85 -4 9 17 6 19 -40 19 -41 0 -49 -3 -45
-15z"/>
<path d="M170 5890 c-11 -11 -20 -24 -20 -30 0 -13 37 -50 50 -50 13 0 50 37
50 50 0 13 -37 50 -50 50 -5 0 -19 -9 -30 -20z"/>
<path d="M570 5890 c-11 -11 -20 -24 -20 -30 0 -13 37 -50 50 -50 13 0 50 37
50 50 0 13 -37 50 -50 50 -5 0 -19 -9 -30 -20z"/>
<path d="M970 5890 c-11 -11 -20 -24 -20 -30 0 -13 37 -50 50 -50 13 0 50 37
50 50 0 13 -37 50 -50 50 -5 0 -19 -9 -30 -20z"/>
<path d="M1370 5890 c-11 -11 -20 -24 -20 -30 0 -13 37 -50 50 -50 13 0 50 37
50 50 0 13 -37 50 -50 50 -5 0 -19 -9 -30 -20z"/>
<path d="M1770 5890 c-11 -11 -20 -24 -20 -30 0 -13 37 -50 50 -50 13 0 50 37
50 50 0 13 -37 50 -50 50 -5 0 -19 -9 -30 -20z"/>
<path d="M2170 5890 c-11 -11 -20 -24 -20 -30 0 -13 37 -50 50 -50 13 0 50 37
50 50 0 13 -37 50 -50 50 -5 0 -19 -9 -30 -20z"/>
<path d="M2570 5890 c-11 -11 -20 -24 -20 -30 0 -13 37 -50 50 -50 13 0 50 37
50 50 0 13 -37 50 -50 50 -5 0 -19 -9 -30 -20z"/>
<path d="M2970 5890 c-11 -11 -20 -24 -20 -30 0 -13 37 -50 50 -50 13 0 50 37
50 50 0 13 -37 50 -50 50 -5 0 -19 -9 -30 -20z"/>
<path d="M3370 5890 c-11 -11 -20 -24 -20 -30 0 -13 37 -50 50 -50 13 0 50 37
50 50 0 13 -37 50 -50 50 -5 0 -19 -9 -30 -20z"/>
<path d="M3770 5890 c-11 -11 -20 -24 -20 -30 0 -13 37 -50 50 -50 13 0 50 37
50 50 0 13 -37 50 -50 50 -5 0 -19 -9 -30 -20z"/>
<path d="M4170 5890 c-11 -11 -20 -24 -20 -30 0 -13 37 -50 50 -50 13 0 50 37
50 50 0 13 -37 50 -50 50 -5 0 -19 -9 -30 -20z"/>
<path d="M4570 5890 c-11 -11 -20 -24 -20 -30 0 -13 37 -50 50 -50 13 0 50 37
50 50 0 13 -37 50 -50 50 -5 0 -19 -9 -30 -20z"/>
<path d="M4970 5890 c-11 -11 -20 -24 -20 -30 0 -13 37 -50 50 -50 13 0 50 37
50 50 0 13 -37 50 -50 50 -5 0 -19 -9 -30 -20z"/>
<path d="M5370 5890 c-11 -11 -20 -24 -20 -30 0 -5 9 -19 20 -30 11 -11 25
-20 30 -20 6 0 19 9 30 20 11 11 20 25 20 30 0 6 -9 19 -20 30 -11 11 -24 20
-30 20 -5 0 -19 -9 -30 -20z"/>
<path d="M5770 5890 c-11 -11 -20 -24 -20 -30 0 -5 9 -19 20 -30 11 -11 25
-20 30 -20 6 0 19 9 30 20 11 11 20 25 20 30 0 6 -9 19 -20 30 -11 11 -24 20
-30 20 -5 0 -19 -9 -30 -20z"/>
<path d="M170 5690 c-11 -11 -20 -24 -20 -30 0 -13 37 -50 50 -50 13 0 50 37
50 50 0 13 -37 50 -50 50 -5 0 -19 -9 -30 -20z"/>
<path d="M570 5690 c-11 -11 -20 -24 -20 -30 0 -13 37 -50 50 -50 13 0 50 37
50 50 0 13 -37 50 -50 50 -5 0 -19 -9 -30 -20z"/>
<path d="M970 5690 c-11 -11 -20 -24 -20 -30 0 -13 37 -50 50 -50 13 0 50 37
50 50 0 13 -37 50 -50 50 -5 0 -19 -9 -30 -20z"/>
<path d="M1370 5690 c-11 -11 -20 -24 -20 -30 0 -13 37 -50 50 -50 13 0 50 37
50 50 0 13 -37 50 -50 50 -5 0 -19 -9 -30 -20z"/>
<path d="M1770 5690 c-11 -11 -20 -24 -20 -30 0 -13 37 -50 50 -50 13 0 50 37
50 50 0 13 -37 50 -50 50 -5 0 -19 -9 -30 -20z"/>
<path d="M2170 5690 c-11 -11 -20 -24 -20 -30 0 -13 37 -50 50 -50 13 0 50 37
50 50 0 13 -37 50 -50 50 -5 0 -19 -9 -30 -20z"/>
<path d="M2570 5690 c-11 -11 -20 -24 -20 -30 0 -13 37 -50 50 -50 13 0 50 37
50 50 0 13 -37 50 -50 50 -5 0 -19 -9 -30 -20z"/>
<path d="M2970 5690 c-11 -11 -20 -24 -20 -30 0 -13 37 -50 50 -50 13 0 50 37
50 50 0 13 -37 50 -50 50 -5 0 -19 -9 -30 -20z"/>
<path d="M3370 5690 c-11 -11 -20 -24 -20 -30 0 -13 37 -50 50 -50 13 0 50 37
50 50 0 13 -37 50 -50 50 -5 0 -19 -9 -30 -20z"/>
<path d="M3770 5690 c-11 -11 -20 -24 -20 -30 0 -13 37 -50 50 -50 13 0 50 37
50 50 0 13 -37 50 -50 50 -5 0 -19 -9 -30 -20z"/>
<path d="M4170 5690 c-11 -11 -20 -24 -20 -30 0 -13 37 -50 50 -50 13 0 50 37
50 50 0 13 -37 50 -50 50 -5 0 -19 -9 -30 -20z"/>
<path d="M4570 5690 c-11 -11 -20 -24 -20 -30 0 -13 37 -50 50 -50 13 0 50 37
50 50 0 13 -37 50 -50 50 -5 0 -19 -9 -30 -20z"/>
<path d="M4970 5690 c-11 -11 -20 -24 -20 -30 0 -13 37 -50 50 -50 13 0 50 37
50 50 0 13 -37 50 -50 50 -5 0 -19 -9 -30 -20z"/>
<path d="M5370 5690 c-11 -11 -20 -24 -20 -30 0 -5 9 -19 20 -30 11 -11 25
-20 30 -20 6 0 19 9 30 20 11 11 20 25 20 30 0 6 -9 19 -20 30 -11 11 -24 20
-30 20 -5 0 -19 -9 -30 -20z"/>
<path d="M5770 5690 c-11 -11 -20 -24 -20 -30 0 -5 9 -19 20 -30 11 -11 25
-20 30 -20 6 0 19 9 30 20 11 11 20 25 20 30 0 6 -9 19 -20 30 -11 11 -24 20
-30 20 -5 0 -19 -9 -30 -20z"/>
<path d="M170 5490 c-11 -11 -20 -24 -20 -30 0 -13 37 -50 50 -50 13 0 50 37
50 50 0 13 -37 50 -50 50 -5 0 -19 -9 -30 -20z"/>
<path d="M570 5490 c-11 -11 -20 -24 -20 -30 0 -13 37 -50 50 -50 13 0 50 37
50 50 0 13 -37 50 -50 50 -5 0 -19 -9 -30 -20z"/>
<path d="M970 5490 c-11 -11 -20 -24 -20 -30 0 -13 37 -50 50 -50 13 0 50 37
50 50 0 13 -37 50 -50 50 -5 0 -19 -9 -30 -20z"/>
<path d="M1370 5490 c-11 -11 -20 -24 -20 -30 0 -13 37 -50 50 -50 13 0 50 37
50 50 0 13 -37 50 -50 50 -5 0 -19 -9 -30 -20z"/>
<path d="M1770 5490 c-11 -11 -20 -24 -20 -30 0 -13 37 -50 50 -50 13 0 50 37
50 50 0 13 -37 50 -50 50 -5 0 -19 -9 -30 -20z"/>
<path d="M2170 5490 c-11 -11 -20 -24 -20 -30 0 -13 37 -50 50 -50 13 0 50 37
50 50 0 13 -37 50 -50 50 -5 0 -19 -9 -30 -20z"/>
<path d="M2570 5490 c-11 -11 -20 -24 -20 -30 0 -13 37 -50 50 -50 13 0 50 37
50 50 0 13 -37 50 -50 50 -5 0 -19 -9 -30 -20z"/>
<path d="M2970 5490 c-11 -11 -20 -24 -20 -30 0 -13 37 -50 50 -50 13 0 50 37
50 50 0 13 -37 50 -50 50 -5 0 -19 -9 -30 -20z"/>
<path d="M3370 5490 c-11 -11 -20 -24 -20 -30 0 -13 37 -50 50 -50 13 0 50 37
50 50 0 13 -37 50 -50 50 -5 0 -19 -9 -30 -20z"/>
<path d="M3770 5490 c-11 -11 -20 -24 -20 -30 0 -13 37 -50 50 -50 13 0 50 37
50 50 0 13 -37 50 -50 50 -5 0 -19 -9 -30 -20z"/>
<path d="M4170 5490 c-11 -11 -20 -24 -20 -30 0 -13 37 -50 50 -50 13 0 50 37
50 50 0 13 -37 50 -50 50 -5 0 -19 -9 -30 -20z"/>
<path d="M4570 5490 c-11 -11 -20 -24 -20 -30 0 -13 37 -50 50 -50 13 0 50 37
50 50 0 13 -37 50 -50 50 -5 0 -19 -9 -30 -20z"/>
<path d="M4970 5490 c-11 -11 -20 -24 -20 -30 0 -13 37 -50 50 -50 13 0 50 37
50 50 0 13 -37 50 -50 50 -5 0 -19 -9 -30 -20z"/>
<path d="M5370 5490 c-11 -11 -20 -24 -20 -30 0 -5 9 -19 20 -30 11 -11 25
-20 30 -20 6 0 19 9 30 20 11 11 20 25 20 30 0 6 -9 19 -20 30 -11 11 -24 20
-30 20 -5 0 -19 -9 -30 -20z"/>
<path d="M5770 5490 c-11 -11 -20 -24 -20 -30 0 -5 9 -19 20 -30 11 -11 25
-20 30 -20 6 0 19 9 30 20 11 11 20 25 20 30 0 6 -9 19 -20 30 -11 11 -24 20
-30 20 -5 0 -19 -9 -30 -20z"/>
<path d="M170 5290 c-11 -11 -20 -24 -20 -30 0 -13 37 -50 50 -50 13 0 50 37
50 50 0 13 -37 50 -50 50 -5 0 -19 -9 -30 -20z"/>
<path d="M570 5290 c-11 -11 -20 -24 -20 -30 0 -13 37 -50 50 -50 13 0 50 37
50 50 0 13 -37 50 -50 50 -5 0 -19 -9 -30 -20z"/>
<path d="M970 5290 c-11 -11 -20 -24 -20 -30 0 -13 37 -50 50 -50 13 0 50 37
50 50 0 13 -37 50 -50 50 -5 0 -19 -9 -30 -20z"/>
<path d="M1370 5290 c-11 -11 -20 -24 -20 -30 0 -13 37 -50 50 -50 13 0 50 37
50 50 0 13 -37 50 -50 50 -5 0 -19 -9 -30 -20z"/>
<path d="M1770 5290 c-11 -11 -20 -24 -20 -30 0 -13 37 -50 50 -50 13 0 50 37
50 50 0 13 -37 50 -50 50 -5 0 -19 -9 -30 -20z"/>
<path d="M2170 5290 c-11 -11 -20 -24 -20 -30 0 -13 37 -50 50 -50 13 0 50 37
50 50 0 13 -37 50 -50 50 -5 0 -19 -9 -30 -20z"/>
<path d="M2570 5290 c-11 -11 -20 -24 -20 -30 0 -13 37 -50 50 -50 13 0 50 37
50 50 0 13 -37 50 -50 50 -5 0 -19 -9 -30 -20z"/>
<path d="M2970 5290 c-11 -11 -20 -24 -20 -30 0 -13 37 -50 50 -50 13 0 50 37
50 50 0 13 -37 50 -50 50 -5 0 -19 -9 -30 -20z"/>
<path d="M3370 5290 c-11 -11 -20 -24 -20 -30 0 -13 37 -50 50 -50 13 0 50 37
50 50 0 13 -37 50 -50 50 -5 0 -19 -9 -30 -20z"/>
<path d="M3770 5290 c-11 -11 -20 -24 -20 -30 0 -13 37 -50 50 -50 13 0 50 37
50 50 0 13 -37 50 -50 50 -5 0 -19 -9 -30 -20z"/>
<path d="M4170 5290 c-11 -11 -20 -24 -20 -30 0 -13 37 -50 50 -50 13 0 50 37
50 50 0 13 -37 50 -50 50 -5 0 -19 -9 -30 -20z"/>
<path d="M4570 5290 c-11 -11 -20 -24 -20 -30 0 -13 37 -50 50 -50 13 0 50 37
50 50 0 13 -37 50 -50 50 -5 0 -19 -9 -30 -20z"/>
<path d="M4970 5290 c-11 -11 -20 -24 -20 -30 0 -13 37 -50 50 -50 13 0 50 37
50 50 0 13 -37 50 -50 50 -5 0 -19 -9 -30 -20z"/>
<path d="M5370 5290 c-11 -11 -20 -24 -20 -30 0 -5 9 -19 20 -30 11 -11 25
-20 30 -20 6 0 19 9 30 20 11 11 20 25 20 30 0 6 -9 19 -20 30 -11 11 -24 20
-30 20 -5 0 -19 -9 -30 -20z"/>
<path d="M5770 5290 c-11 -11 -20 -24 -20 -30 0 -5 9 -19 20 -30 11 -11 25
-20 30 -20 6 0 19 9 30 20 11 11 20 25 20 30 0 6 -9 19 -20 30 -11 11 -24 20
-30 20 -5 0 -19 -9 -30 -20z"/>
<path d="M170 5090 c-11 -11 -20 -24 -20 -30 0 -13 37 -50 50 -50 13 0 50 37
50 50 0 13 -37 50 -50 50 -5 0 -19 -9 -30 -20z"/>
<path d="M570 5090 c-11 -11 -20 -24 -20 -30 0 -13 37 -50 50 -50 13 0 50 37
50 50 0 13 -37 50 -50 50 -5 0 -19 -9 -30 -20z"/>
<path d="M970 5090 c-11 -11 -20 -24 -20 -30 0 -13 37 -50 50 -50 13 0 50 37
50 50 0 6 -9 19 -20 30 -11 11 -24 20 -30 20 -5 0 -19 -9 -30 -20z"/>
<path d="M1370 5090 c-11 -11 -20 -24 -20 -30 0 -5 9 -19 20 -30 11 -11 25
-20 30 -20 6 0 19 9 30 20 11 11 20 25 20 30 0 6 -9 19 -20 30 -11 11 -24 20
-30 20 -5 0 -19 -9 -30 -20z"/>
<path d="M1770 5090 c-11 -11 -20 -24 -20 -30 0 -5 9 -19 20 -30 11 -11 25
-20 30 -20 6 0 19 9 30 20 11 11 20 25 20 30 0 6 -9 19 -20 30 -11 11 -24 20
-30 20 -5 0 -19 -9 -30 -20z"/>
<path d="M2170 5090 c-11 -11 -20 -24 -20 -30 0 -5 9 -19 20 -30 11 -11 25
-20 30 -20 6 0 19 9 30 20 11 11 20 25 20 30 0 6 -9 19 -20 30 -11 11 -24 20
-30 20 -5 0 -19 -9 -30 -20z"/>
<path d="M2570 5090 c-11 -11 -20 -24 -20 -30 0 -5 9 -19 20 -30 11 -11 25
-20 30 -20 6 0 19 9 30 20 11 11 20 25 20 30 0 6 -9 19 -20 30 -11 11 -24 20
-30 20 -5 0 -19 -9 -30 -20z"/>
<path d="M2970 5090 c-11 -11 -20 -24 -20 -30 0 -5 9 -19 20 -30 11 -11 25
-20 30 -20 6 0 19 9 30 20 11 11 20 25 20 30 0 6 -9 19 -20 30 -11 11 -24 20
-30 20 -5 0 -19 -9 -30 -20z"/>
<path d="M3370 5090 c-11 -11 -20 -24 -20 -30 0 -5 9 -19 20 -30 11 -11 25
-20 30 -20 6 0 19 9 30 20 11 11 20 25 20 30 0 6 -9 19 -20 30 -11 11 -24 20
-30 20 -5 0 -19 -9 -30 -20z"/>
<path d="M3770 5090 c-11 -11 -20 -24 -20 -30 0 -5 9 -19 20 -30 11 -11 25
-20 30 -20 6 0 19 9 30 20 11 11 20 25 20 30 0 6 -9 19 -20 30 -11 11 -24 20
-30 20 -5 0 -19 -9 -30 -20z"/>
<path d="M4170 5090 c-11 -11 -20 -24 -20 -30 0 -5 9 -19 20 -30 11 -11 25
-20 30 -20 6 0 19 9 30 20 11 11 20 25 20 30 0 6 -9 19 -20 30 -11 11 -24 20
-30 20 -5 0 -19 -9 -30 -20z"/>
<path d="M4570 5090 c-11 -11 -20 -24 -20 -30 0 -5 9 -19 20 -30 11 -11 25
-20 30 -20 6 0 19 9 30 20 11 11 20 25 20 30 0 6 -9 19 -20 30 -11 11 -24 20
-30 20 -5 0 -19 -9 -30 -20z"/>
<path d="M4970 5090 c-11 -11 -20 -24 -20 -30 0 -5 9 -19 20 -30 11 -11 25
-20 30 -20 6 0 19 9 30 20 11 11 20 25 20 30 0 6 -9 19 -20 30 -11 11 -24 20
-30 20 -5 0 -19 -9 -30 -20z"/>
<path d="M5370 5090 c-11 -11 -20 -24 -20 -30 0 -13 37 -50 50 -50 13 0 50 37
50 50 0 13 -37 50 -50 50 -5 0 -19 -9 -30 -20z"/>
<path d="M5770 5090 c-11 -11 -20 -24 -20 -30 0 -13 37 -50 50 -50 13 0 50 37
50 50 0 13 -37 50 -50 50 -5 0 -19 -9 -30 -20z"/>
<path d="M170 4890 c-11 -11 -20 -24 -20 -30 0 -13 37 -50 50 -50 13 0 50 37
50 50 0 13 -37 50 -50 50 -5 0 -19 -9 -30 -20z"/>
<path d="M570 4890 c-11 -11 -20 -24 -20 -30 0 -13 37 -50 50 -50 13 0 50 37
50 50 0 13 -37 50 -50 50 -5 0 -19 -9 -30 -20z"/>
<path d="M970 4890 c-11 -11 -20 -24 -20 -30 0 -13 37 -50 50 -50 13 0 50 37
50 50 0 6 -9 19 -20 30 -11 11 -24 20 -30 20 -5 0 -19 -9 -30 -20z"/>
<path d="M1370 4890 c-11 -11 -20 -24 -20 -30 0 -5 9 -19 20 -30 11 -11 25
-20 30 -20 6 0 19 9 30 20 11 11 20 25 20 30 0 6 -9 19 -20 30 -11 11 -24 20
-30 20 -5 0 -19 -9 -30 -20z"/>
<path d="M1770 4890 c-11 -11 -20 -24 -20 -30 0 -5 9 -19 20 -30 11 -11 25
-20 30 -20 6 0 19 9 30 20 11 11 20 25 20 30 0 6 -9 19 -20 30 -11 11 -24 20
-30 20 -5 0 -19 -9 -30 -20z"/>
<path d="M2170 4890 c-11 -11 -20 -24 -20 -30 0 -5 9 -19 20 -30 11 -11 25
-20 30 -20 6 0 19 9 30 20 11 11 20 25 20 30 0 6 -9 19 -20 30 -11 11 -24 20
-30 20 -5 0 -19 -9 -30 -20z"/>
<path d="M2570 4890 c-11 -11 -20 -24 -20 -30 0 -5 9 -19 20 -30 11 -11 25
-20 30 -20 6 0 19 9 30 20 11 11 20 25 20 30 0 6 -9 19 -20 30 -11 11 -24 20
-30 20 -5 0 -19 -9 -30 -20z"/>
<path d="M2970 4890 c-11 -11 -20 -24 -20 -30 0 -5 9 -19 20 -30 11 -11 25
-20 30 -20 6 0 19 9 30 20 11 11 20 25 20 30 0 6 -9 19 -20 30 -11 11 -24 20
-30 20 -5 0 -19 -9 -30 -20z"/>
<path d="M3370 4890 c-11 -11 -20 -24 -20 -30 0 -5 9 -19 20 -30 11 -11 25
-20 30 -20 6 0 19 9 30 20 11 11 20 25 20 30 0 6 -9 19 -20 30 -11 11 -24 20
-30 20 -5 0 -19 -9 -30 -20z"/>
<path d="M3770 4890 c-11 -11 -20 -24 -20 -30 0 -5 9 -19 20 -30 11 -11 25
-20 30 -20 6 0 19 9 30 20 11 11 20 25 20 30 0 6 -9 19 -20 30 -11 11 -24 20
-30 20 -5 0 -19 -9 -30 -20z"/>
<path d="M4170 4890 c-11 -11 -20 -24 -20 -30 0 -5 9 -19 20 -30 11 -11 25
-20 30 -20 6 0 19 9 30 20 11 11 20 25 20 30 0 6 -9 19 -20 30 -11 11 -24 20
-30 20 -5 0 -19 -9 -30 -20z"/>
<path d="M4570 4890 c-11 -11 -20 -24 -20 -30 0 -5 9 -19 20 -30 11 -11 25
-20 30 -20 6 0 19 9 30 20 11 11 20 25 20 30 0 6 -9 19 -20 30 -11 11 -24 20
-30 20 -5 0 -19 -9 -30 -20z"/>
<path d="M4970 4890 c-11 -11 -20 -24 -20 -30 0 -5 9 -19 20 -30 11 -11 25
-20 30 -20 6 0 19 9 30 20 11 11 20 25 20 30 0 6 -9 19 -20 30 -11 11 -24 20
-30 20 -5 0 -19 -9 -30 -20z"/>
<path d="M5370 4890 c-11 -11 -20 -24 -20 -30 0 -13 37 -50 50 -50 13 0 50 37
50 50 0 13 -37 50 -50 50 -5 0 -19 -9 -30 -20z"/>
<path d="M5770 4890 c-11 -11 -20 -24 -20 -30 0 -13 37 -50 50 -50 13 0 50 37
50 50 0 13 -37 50 -50 50 -5 0 -19 -9 -30 -20z"/>
<path d="M170 4690 c-11 -11 -20 -24 -20 -30 0 -13 37 -50 50 -50 13 0 50 37
50 50 0 13 -37 50 -50 50 -5 0 -19 -9 -30 -20z"/>
<path d="M570 4690 c-11 -11 -20 -24 -20 -30 0 -13 37 -50 50 -50 13 0 50 37
50 50 0 13 -37 50 -50 50 -5 0 -19 -9 -30 -20z"/>
<path d="M970 4690 c-11 -11 -20 -24 -20 -30 0 -13 37 -50 50 -50 13 0 50 37
50 50 0 6 -9 19 -20 30 -11 11 -24 20 -30 20 -5 0 -19 -9 -30 -20z"/>
<path d="M1370 4690 c-11 -11 -20 -24 -20 -30 0 -5 9 -19 20 -30 11 -11 25
-20 30 -20 6 0 19 9 30 20 11 11 20 25 20 30 0 6 -9 19 -20 30 -11 11 -24 20
-30 20 -5 0 -19 -9 -30 -20z"/>
<path d="M1770 4690 c-11 -11 -20 -24 -20 -30 0 -5 9 -19 20 -30 11 -11 25
-20 30 -20 6 0 19 9 30 20 11 11 20 25 20 30 0 6 -9 19 -20 30 -11 11 -24 20
-30 20 -5 0 -19 -9 -30 -20z"/>
<path d="M2170 4690 c-11 -11 -20 -24 -20 -30 0 -5 9 -19 20 -30 11 -11 25
-20 30 -20 6 0 19 9 30 20 11 11 20 25 20 30 0 6 -9 19 -20 30 -11 11 -24 20
-30 20 -5 0 -19 -9 -30 -20z"/>
<path d="M2570 4690 c-11 -11 -20 -24 -20 -30 0 -5 9 -19 20 -30 11 -11 25
-20 30 -20 6 0 19 9 30 20 11 11 20 25 20 30 0 6 -9 19 -20 30 -11 11 -24 20
-30 20 -5 0 -19 -9 -30 -20z"/>
<path d="M2970 4690 c-11 -11 -20 -24 -20 -30 0 -5 9 -19 20 -30 11 -11 25
-20 30 -20 6 0 19 9 30 20 11 11 20 25 20 30 0 6 -9 19 -20 30 -11 11 -24 20
-30 20 -5 0 -19 -9 -30 -20z"/>
<path d="M3370 4690 c-11 -11 -20 -24 -20 -30 0 -5 9 -19 20 -30 11 -11 25
-20 30 -20 6 0 19 9 30 20 11 11 20 25 20 30 0 6 -9 19 -20 30 -11 11 -24 20
-30 20 -5 0 -19 -9 -30 -20z"/>
<path d="M3770 4690 c-11 -11 -20 -24 -20 -30 0 -5 9 -19 20 -30 11 -11 25
-20 30 -20 6 0 19 9 30 20 11 11 20 25 20 30 0 6 -9 19 -20 30 -11 11 -24 20
-30 20 -5 0 -19 -9 -30 -20z"/>
<path d="M4170 4690 c-11 -11 -20 -24 -20 -30 0 -5 9 -19 20 -30 11 -11 25
-20 30 -20 6 0 19 9 30 20 11 11 20 25 20 30 0 6 -9 19 -20 30 -11 11 -24 20
-30 20 -5 0 -19 -9 -30 -20z"/>
<path d="M4570 4690 c-11 -11 -20 -24 -20 -30 0 -5 9 -19 20 -30 11 -11 25
-20 30 -20 6 0 19 9 30 20 11 11 20 25 20 30 0 6 -9 19 -20 30 -11 11 -24 20
-30 20 -5 0 -19 -9 -30 -20z"/>
<path d="M4970 4690 c-11 -11 -20 -24 -20 -30 0 -5 9 -19 20 -30 11 -11 25
-20 30 -20 6 0 19 9 30 20 11 11 20 25 20 30 0 6 -9 19 -20 30 -11 11 -24 20
-30 20 -5 0 -19 -9 -30 -20z"/>
<path d="M5370 4690 c-11 -11 -20 -24 -20 -30 0 -13 37 -50 50 -50 13 0 50 37
50 50 0 13 -37 50 -50 50 -5 0 -19 -9 -30 -20z"/>
<path d="M5770 4690 c-11 -11 -20 -24 -20 -30 0 -13 37 -50 50 -50 13 0 50 37
50 50 0 13 -37 50 -50 50 -5 0 -19 -9 -30 -20z"/>
<path d="M170 4490 c-11 -11 -20 -24 -20 -30 0 -13 37 -50 50 -50 13 0 50 37
50 50 0 13 -37 50 -50 50 -5 0 -19 -9 -30 -20z"/>
<path d="M570 4490 c-11 -11 -20 -24 -20 -30 0 -13 37 -50 50 -50 13 0 50 37
50 50 0 13 -37 50 -50 50 -5 0 -19 -9 -30 -20z"/>
<path d="M970 4490 c-11 -11 -20 -24 -20 -30 0 -13 37 -50 50 -50 13 0 50 37
50 50 0 6 -9 19 -20 30 -11 11 -24 20 -30 20 -5 0 -19 -9 -30 -20z"/>
<path d="M1370 4490 c-11 -11 -20 -24 -20 -30 0 -5 9 -19 20 -30 11 -11 25
-20 30 -20 6 0 19 9 30 20 11 11 20 25 20 30 0 6 -9 19 -20 30 -11 11 -24 20
-30 20 -5 0 -19 -9 -30 -20z"/>
<path d="M1770 4490 c-11 -11 -20 -24 -20 -30 0 -5 9 -19 20 -30 11 -11 25
-20 30 -20 6 0 19 9 30 20 11 11 20 25 20 30 0 6 -9 19 -20 30 -11 11 -24 20
-30 20 -5 0 -19 -9 -30 -20z"/>
<path d="M2170 4490 c-11 -11 -20 -24 -20 -30 0 -5 9 -19 20 -30 11 -11 25
-20 30 -20 6 0 19 9 30 20 11 11 20 25 20 30 0 6 -9 19 -20 30 -11 11 -24 20
-30 20 -5 0 -19 -9 -30 -20z"/>
<path d="M2570 4490 c-11 -11 -20 -24 -20 -30 0 -5 9 -19 20 -30 11 -11 25
-20 30 -20 6 0 19 9 30 20 11 11 20 25 20 30 0 6 -9 19 -20 30 -11 11 -24 20
-30 20 -5 0 -19 -9 -30 -20z"/>
<path d="M2970 4490 c-11 -11 -20 -24 -20 -30 0 -5 9 -19 20 -30 11 -11 25
-20 30 -20 6 0 19 9 30 20 11 11 20 25 20 30 0 6 -9 19 -20 30 -11 11 -24 20
-30 20 -5 0 -19 -9 -30 -20z"/>
<path d="M3370 4490 c-11 -11 -20 -24 -20 -30 0 -5 9 -19 20 -30 11 -11 25
-20 30 -20 6 0 19 9 30 20 11 11 20 25 20 30 0 6 -9 19 -20 30 -11 11 -24 20
-30 20 -5 0 -19 -9 -30 -20z"/>
<path d="M3770 4490 c-11 -11 -20 -24 -20 -30 0 -5 9 -19 20 -30 11 -11 25
-20 30 -20 6 0 19 9 30 20 11 11 20 25 20 30 0 6 -9 19 -20 30 -11 11 -24 20
-30 20 -5 0 -19 -9 -30 -20z"/>
<path d="M4170 4490 c-11 -11 -20 -24 -20 -30 0 -5 9 -19 20 -30 11 -11 25
-20 30 -20 6 0 19 9 30 20 11 11 20 25 20 30 0 6 -9 19 -20 30 -11 11 -24 20
-30 20 -5 0 -19 -9 -30 -20z"/>
<path d="M4570 4490 c-11 -11 -20 -24 -20 -30 0 -5 9 -19 20 -30 11 -11 25
-20 30 -20 6 0 19 9 30 20 11 11 20 25 20 30 0 6 -9 19 -20 30 -11 11 -24 20
-30 20 -5 0 -19 -9 -30 -20z"/>
<path d="M4970 4490 c-11 -11 -20 -24 -20 -30 0 -5 9 -19 20 -30 11 -11 25
-20 30 -20 6 0 19 9 30 20 11 11 20 25 20 30 0 6 -9 19 -20 30 -11 11 -24 20
-30 20 -5 0 -19 -9 -30 -20z"/>
<path d="M5370 4490 c-11 -11 -20 -24 -20 -30 0 -13 37 -50 50 -50 13 0 50 37
50 50 0 13 -37 50 -50 50 -5 0 -19 -9 -30 -20z"/>
<path d="M5770 4490 c-11 -11 -20 -24 -20 -30 0 -13 37 -50 50 -50 13 0 50 37
50 50 0 13 -37 50 -50 50 -5 0 -19 -9 -30 -20z"/>
<path d="M170 4290 c-11 -11 -20 -24 -20 -30 0 -13 37 -50 50 -50 13 0 50 37
50 50 0 13 -37 50 -50 50 -5 0 -19 -9 -30 -20z"/>
<path d="M570 4290 c-11 -11 -20 -24 -20 -30 0 -13 37 -50 50 -50 13 0 50 37
50 50 0 13 -37 50 -50 50 -5 0 -19 -9 -30 -20z"/>
<path d="M970 4290 c-11 -11 -20 -24 -20 -30 0 -13 37 -50 50 -50 13 0 50 37
50 50 0 6 -9 19 -20 30 -11 11 -24 20 -30 20 -5 0 -19 -9 -30 -20z"/>
<path d="M1370 4290 c-11 -11 -20 -24 -20 -30 0 -5 9 -19 20 -30 11 -11 25
-20 30 -20 6 0 19 9 30 20 11 11 20 25 20 30 0 6 -9 19 -20 30 -11 11 -24 20
-30 20 -5 0 -19 -9 -30 -20z"/>
<path d="M1770 4290 c-11 -11 -20 -24 -20 -30 0 -5 9 -19 20 -30 11 -11 25
-20 30 -20 6 0 19 9 30 20 11 11 20 25 20 30 0 6 -9 19 -20 30 -11 11 -24 20
-30 20 -5 0 -19 -9 -30 -20z"/>
<path d="M2170 4290 c-11 -11 -20 -24 -20 -30 0 -5 9 -19 20 -30 11 -11 25
-20 30 -20 6 0 19 9 30 20 11 11 20 25 20 30 0 6 -9 19 -20 30 -11 11 -24 20
-30 20 -5 0 -19 -9 -30 -20z"/>
<path d="M2570 4290 c-11 -11 -20 -24 -20 -30 0 -5 9 -19 20 -30 11 -11 25
-20 30 -20 6 0 19 9 30 20 11 11 20 25 20 30 0 6 -9 19 -20 30 -11 11 -24 20
-30 20 -5 0 -19 -9 -30 -20z"/>
<path d="M2970 4290 c-11 -11 -20 -24 -20 -30 0 -5 9 -19 20 -30 11 -11 25
-20 30 -20 6 0 19 9 30 20 11 11 20 25 20 30 0 6 -9 19 -20 30 -11 11 -24 20
-30 20 -5 0 -19 -9 -30 -20z"/>
<path d="M3370 4290 c-11 -11 -20 -24 -20 -30 0 -5 9 -19 20 -30 11 -11 25
-20 30 -20 6 0 19 9 30 20 11 11 20 25 20 30 0 6 -9 19 -20 30 -11 11 -24 20
-30 20 -5 0 -19 -9 -30 -20z"/>
<path d="M3770 4290 c-11 -11 -20 -24 -20 -30 0 -5 9 -19 20 -30 11 -11 25
-20 30 -20 6 0 19 9 30 20 11 11 20 25 20 30 0 6 -9 19 -20 30 -11 11 -24 20
-30 20 -5 0 -19 -9 -30 -20z"/>
<path d="M4170 4290 c-11 -11 -20 -24 -20 -30 0 -5 9 -19 20 -30 11 -11 25
-20 30 -20 6 0 19 9 30 20 11 11 20 25 20 30 0 6 -9 19 -20 30 -11 11 -24 20
-30 20 -5 0 -19 -9 -30 -20z"/>
<path d="M4570 4290 c-11 -11 -20 -24 -20 -30 0 -5 9 -19 20 -30 11 -11 25
-20 30 -20 6 0 19 9 30 20 11 11 20 25 20 30 0 6 -9 19 -20 30 -11 11 -24 20
-30 20 -5 0 -19 -9 -30 -20z"/>
<path d="M4970 4290 c-11 -11 -20 -24 -20 -30 0 -5 9 -19 20 -30 11 -11 25
-20 30 -20 6 0 19 9 30 20 11 11 20 25 20 30 0 6 -9 19 -20 30 -11 11 -24 20
-30 20 -5 0 -19 -9 -30 -20z"/>
<path d="M5370 4290 c-11 -11 -20 -24 -20 -30 0 -13 37 -50 50 -50 13 0 50 37
50 50 0 13 -37 50 -50 50 -5 0 -19 -9 -30 -20z"/>
<path d="M5770 4290 c-11 -11 -20 -24 -20 -30 0 -13 37 -50 50 -50 13 0 50 37
50 50 0 13 -37 50 -50 50 -5 0 -19 -9 -30 -20z"/>
<path d="M170 4090 c-11 -11 -20 -24 -20 -30 0 -13 37 -50 50 -50 13 0 50 37
50 50 0 13 -37 50 -50 50 -5 0 -19 -9 -30 -20z"/>
<path d="M570 4090 c-11 -11 -20 -24 -20 -30 0 -13 37 -50 50 -50 13 0 50 37
50 50 0 13 -37 50 -50 50 -5 0 -19 -9 -30 -20z"/>
<path d="M970 4090 c-11 -11 -20 -24 -20 -30 0 -13 37 -50 50 -50 13 0 50 37
50 50 0 6 -9 19 -20 30 -11 11 -24 20 -30 20 -5 0 -19 -9 -30 -20z"/>
<path d="M1370 4090 c-11 -11 -20 -24 -20 -30 0 -5 9 -19 20 -30 11 -11 25
-20 30 -20 6 0 19 9 30 20 11 11 20 25 20 30 0 6 -9 19 -20 30 -11 11 -24 20
-30 20 -5 0 -19 -9 -30 -20z"/>
<path d="M1770 4090 c-11 -11 -20 -24 -20 -30 0 -5 9 -19 20 -30 11 -11 25
-20 30 -20 6 0 19 9 30 20 11 11 20 25 20 30 0 6 -9 19 -20 30 -11 11 -24 20
-30 20 -5 0 -19 -9 -30 -20z"/>
<path d="M2170 4090 c-11 -11 -20 -24 -20 -30 0 -5 9 -19 20 -30 11 -11 25
-20 30 -20 6 0 19 9 30 20 11 11 20 25 20 30 0 6 -9 19 -20 30 -11 11 -24 20
-30 20 -5 0 -19 -9 -30 -20z"/>
<path d="M2570 4090 c-11 -11 -20 -24 -20 -30 0 -5 9 -19 20 -30 11 -11 25
-20 30 -20 6 0 19 9 30 20 11 11 20 25 20 30 0 6 -9 19 -20 30 -11 11 -24 20
-30 20 -5 0 -19 -9 -30 -20z"/>
<path d="M2970 4090 c-11 -11 -20 -24 -20 -30 0 -5 9 -19 20 -30 11 -11 25
-20 30 -20 6 0 19 9 30 20 11 11 20 25 20 30 0 6 -9 19 -20 30 -11 11 -24 20
-30 20 -5 0 -19 -9 -30 -20z"/>
<path d="M3370 4090 c-11 -11 -20 -24 -20 -30 0 -5 9 -19 20 -30 11 -11 25
-20 30 -20 6 0 19 9 30 20 11 11 20 25 20 30 0 6 -9 19 -20 30 -11 11 -24 20
-30 20 -5 0 -19 -9 -30 -20z"/>
<path d="M3770 4090 c-11 -11 -20 -24 -20 -30 0 -5 9 -19 20 -30 11 -11 25
-20 30 -20 6 0 19 9 30 20 11 11 20 25 20 30 0 6 -9 19 -20 30 -11 11 -24 20
-30 20 -5 0 -19 -9 -30 -20z"/>
<path d="M4170 4090 c-11 -11 -20 -24 -20 -30 0 -5 9 -19 20 -30 11 -11 25
-20 30 -20 6 0 19 9 30 20 11 11 20 25 20 30 0 6 -9 19 -20 30 -11 11 -24 20
-30 20 -5 0 -19 -9 -30 -20z"/>
<path d="M4570 4090 c-11 -11 -20 -24 -20 -30 0 -5 9 -19 20 -30 11 -11 25
-20 30 -20 6 0 19 9 30 20 11 11 20 25 20 30 0 6 -9 19 -20 30 -11 11 -24 20
-30 20 -5 0 -19 -9 -30 -20z"/>
<path d="M4970 4090 c-11 -11 -20 -24 -20 -30 0 -5 9 -19 20 -30 11 -11 25
-20 30 -20 6 0 19 9 30 20 11 11 20 25 20 30 0 6 -9 19 -20 30 -11 11 -24 20
-30 20 -5 0 -19 -9 -30 -20z"/>
<path d="M5370 4090 c-11 -11 -20 -24 -20 -30 0 -13 37 -50 50 -50 13 0 50 37
50 50 0 13 -37 50 -50 50 -5 0 -19 -9 -30 -20z"/>
<path d="M5770 4090 c-11 -11 -20 -24 -20 -30 0 -13 37 -50 50 -50 13 0 50 37
50 50 0 13 -37 50 -50 50 -5 0 -19 -9 -30 -20z"/>
<path d="M170 3890 c-11 -11 -20 -24 -20 -30 0 -13 37 -50 50 -50 13 0 50 37
50 50 0 13 -37 50 -50 50 -5 0 -19 -9 -30 -20z"/>
<path d="M570 3890 c-11 -11 -20 -24 -20 -30 0 -13 37 -50 50 -50 13 0 50 37
50 50 0 13 -37 50 -50 50 -5 0 -19 -9 -30 -20z"/>
<path d="M970 3890 c-11 -11 -20 -24 -20 -30 0 -13 37 -50 50 -50 13 0 50 37
50 50 0 6 -9 19 -20 30 -11 11 -24 20 -30 20 -5 0 -19 -9 -30 -20z"/>
<path d="M1370 3890 c-11 -11 -20 -24 -20 -30 0 -5 9 -19 20 -30 11 -11 25
-20 30 -20 6 0 19 9 30 20 11 11 20 25 20 30 0 6 -9 19 -20 30 -11 11 -24 20
-30 20 -5 0 -19 -9 -30 -20z"/>
<path d="M1770 3890 c-11 -11 -20 -24 -20 -30 0 -5 9 -19 20 -30 11 -11 25
-20 30 -20 6 0 19 9 30 20 11 11 20 25 20 30 0 6 -9 19 -20 30 -11 11 -24 20
-30 20 -5 0 -19 -9 -30 -20z"/>
<path d="M2170 3890 c-11 -11 -20 -24 -20 -30 0 -5 9 -19 20 -30 11 -11 25
-20 30 -20 6 0 19 9 30 20 11 11 20 25 20 30 0 6 -9 19 -20 30 -11 11 -24 20
-30 20 -5 0 -19 -9 -30 -20z"/>
<path d="M2570 3890 c-11 -11 -20 -24 -20 -30 0 -5 9 -19 20 -30 11 -11 25
-20 30 -20 6 0 19 9 30 20 11 11 20 25 20 30 0 6 -9 19 -20 30 -11 11 -24 20
-30 20 -5 0 -19 -9 -30 -20z"/>
<path d="M2970 3890 c-11 -11 -20 -24 -20 -30 0 -5 9 -19 20 -30 11 -11 25
-20 30 -20 6 0 19 9 30 20 11 11 20 25 20 30 0 6 -9 19 -20 30 -11 11 -24 20
-30 20 -5 0 -19 -9 -30 -20z"/>
<path d="M3370 3890 c-11 -11 -20 -24 -20 -30 0 -5 9 -19 20 -30 11 -11 25
-20 30 -20 6 0 19 9 30 20 11 11 20 25 20 30 0 6 -9 19 -20 30 -11 11 -24 20
-30 20 -5 0 -19 -9 -30 -20z"/>
<path d="M3770 3890 c-11 -11 -20 -24 -20 -30 0 -5 9 -19 20 -30 11 -11 25
-20 30 -20 6 0 19 9 30 20 11 11 20 25 20 30 0 6 -9 19 -20 30 -11 11 -24 20
-30 20 -5 0 -19 -9 -30 -20z"/>
<path d="M4170 3890 c-11 -11 -20 -24 -20 -30 0 -5 9 -19 20 -30 11 -11 25
-20 30 -20 6 0 19 9 30 20 11 11 20 25 20 30 0 6 -9 19 -20 30 -11 11 -24 20
-30 20 -5 0 -19 -9 -30 -20z"/>
<path d="M4570 3890 c-11 -11 -20 -24 -20 -30 0 -5 9 -19 20 -30 11 -11 25
-20 30 -20 6 0 19 9 30 20 11 11 20 25 20 30 0 6 -9 19 -20 30 -11 11 -24 20
-30 20 -5 0 -19 -9 -30 -20z"/>
<path d="M4970 3890 c-11 -11 -20 -24 -20 -30 0 -5 9 -19 20 -30 11 -11 25
-20 30 -20 6 0 19 9 30 20 11 11 20 25 20 30 0 6 -9 19 -20 30 -11 11 -24 20
-30 20 -5 0 -19 -9 -30 -20z"/>
<path d="M5370 3890 c-11 -11 -20 -24 -20 -30 0 -13 37 -50 50 -50 13 0 50 37
50 50 0 13 -37 50 -50 50 -5 0 -19 -9 -30 -20z"/>
<path d="M5770 3890 c-11 -11 -20 -24 -20 -30 0 -13 37 -50 50 -50 13 0 50 37
50 50 0 13 -37 50 -50 50 -5 0 -19 -9 -30 -20z"/>
<path d="M170 3690 c-11 -11 -20 -24 -20 -30 0 -13 37 -50 50 -50 13 0 50 37
50 50 0 13 -37 50 -50 50 -5 0 -19 -9 -30 -20z"/>
<path d="M570 3690 c-11 -11 -20 -24 -20 -30 0 -13 37 -50 50 -50 13 0 50 37
50 50 0 13 -37 50 -50 50 -5 0 -19 -9 -30 -20z"/>
<path d="M970 3690 c-11 -11 -20 -24 -20 -30 0 -13 37 -50 50 -50 13 0 50 37
50 50 0 6 -9 19 -20 30 -11 11 -24 20 -30 20 -5 0 -19 -9 -30 -20z"/>
<path d="M1370 3690 c-11 -11 -20 -24 -20 -30 0 -5 9 -19 20 -30 11 -11 25
-20 30 -20 6 0 19 9 30 20 11 11 20 25 20 30 0 6 -9 19 -20 30 -11 11 -24 20
-30 20 -5 0 -19 -9 -30 -20z"/>
<path d="M1770 3690 c-11 -11 -20 -24 -20 -30 0 -5 9 -19 20 -30 11 -11 25
-20 30 -20 6 0 19 9 30 20 11 11 20 25 20 30 0 6 -9 19 -20 30 -11 11 -24 20
-30 20 -5 0 -19 -9 -30 -20z"/>
<path d="M2170 3690 c-11 -11 -20 -24 -20 -30 0 -5 9 -19 20 -30 11 -11 25
-20 30 -20 6 0 19 9 30 20 11 11 20 25 20 30 0 6 -9 19 -20 30 -11 11 -24 20
-30 20 -5 0 -19 -9 -30 -20z"/>
<path d="M2570 3690 c-11 -11 -20 -24 -20 -30 0 -5 9 -19 20 -30 11 -11 25
-20 30 -20 6 0 19 9 30 20 11 11 20 25 20 30 0 6 -9 19 -20 30 -11 11 -24 20
-30 20 -5 0 -19 -9 -30 -20z"/>
<path d="M2970 3690 c-11 -11 -20 -24 -20 -30 0 -5 9 -19 20 -30 11 -11 25
-20 30 -20 6 0 19 9 30 20 11 11 20 25 20 30 0 6 -9 19 -20 30 -11 11 -24 20
-30 20 -5 0 -19 -9 -30 -20z"/>
<path d="M3370 3690 c-11 -11 -20 -24 -20 -30 0 -5 9 -19 20 -30 11 -11 25
-20 30 -20 6 0 19 9 30 20 11 11 20 25 20 30 0 6 -9 19 -20 30 -11 11 -24 20
-30 20 -5 0 -19 -9 -30 -20z"/>
<path d="M3770 3690 c-11 -11 -20 -24 -20 -30 0 -5 9 -19 20 -30 11 -11 25
-20 30 -20 6 0 19 9 30 20 11 11 20 25 20 30 0 6 -9 19 -20 30 -11 11 -24 20
-30 20 -5 0 -19 -9 -30 -20z"/>
<path d="M4170 3690 c-11 -11 -20 -24 -20 -30 0 -5 9 -19 20 -30 11 -11 25
-20 30 -20 6 0 19 9 30 20 11 11 20 25 20 30 0 6 -9 19 -20 30 -11 11 -24 20
-30 20 -5 0 -19 -9 -30 -20z"/>
<path d="M4570 3690 c-11 -11 -20 -24 -20 -30 0 -5 9 -19 20 -30 11 -11 25
-20 30 -20 6 0 19 9 30 20 11 11 20 25 20 30 0 6 -9 19 -20 30 -11 11 -24 20
-30 20 -5 0 -19 -9 -30 -20z"/>
<path d="M4970 3690 c-11 -11 -20 -24 -20 -30 0 -5 9 -19 20 -30 11 -11 25
-20 30 -20 6 0 19 9 30 20 11 11 20 25 20 30 0 6 -9 19 -20 30 -11 11 -24 20
-30 20 -5 0 -19 -9 -30 -20z"/>
<path d="M5370 3690 c-11 -11 -20 -24 -20 -30 0 -13 37 -50 50 -50 13 0 50 37
50 50 0 13 -37 50 -50 50 -5 0 -19 -9 -30 -20z"/>
<path d="M5770 3690 c-11 -11 -20 -24 -20 -30 0 -13 37 -50 50 -50 13 0 50 37
50 50 0 13 -37 50 -50 50 -5 0 -19 -9 -30 -20z"/>
<path d="M170 3490 c-11 -11 -20 -24 -20 -30 0 -13 37 -50 50 -50 13 0 50 37
50 50 0 13 -37 50 -50 50 -5 0 -19 -9 -30 -20z"/>
<path d="M570 3490 c-11 -11 -20 -24 -20 -30 0 -13 37 -50 50 -50 13 0 50 37
50 50 0 13 -37 50 -50 50 -5 0 -19 -9 -30 -20z"/>
<path d="M970 3490 c-11 -11 -20 -24 -20 -30 0 -13 37 -50 50 -50 13 0 50 37
50 50 0 6 -9 19 -20 30 -11 11 -24 20 -30 20 -5 0 -19 -9 -30 -20z"/>
<path d="M1370 3490 c-11 -11 -20 -24 -20 -30 0 -5 9 -19 20 -30 11 -11 25
-20 30 -20 6 0 19 9 30 20 11 11 20 25 20 30 0 6 -9 19 -20 30 -11 11 -24 20
-30 20 -5 0 -19 -9 -30 -20z"/>
<path d="M1770 3490 c-11 -11 -20 -24 -20 -30 0 -5 9 -19 20 -30 11 -11 25
-20 30 -20 6 0 19 9 30 20 11 11 20 25 20 30 0 6 -9 19 -20 30 -11 11 -24 20
-30 20 -5 0 -19 -9 -30 -20z"/>
<path d="M2170 3490 c-11 -11 -20 -24 -20 -30 0 -5 9 -19 20 -30 11 -11 25
-20 30 -20 6 0 19 9 30 20 11 11 20 25 20 30 0 6 -9 19 -20 30 -11 11 -24 20
-30 20 -5 0 -19 -9 -30 -20z"/>
<path d="M2570 3490 c-11 -11 -20 -24 -20 -30 0 -5 9 -19 20 -30 11 -11 25
-20 30 -20 6 0 19 9 30 20 11 11 20 25 20 30 0 6 -9 19 -20 30 -11 11 -24 20
-30 20 -5 0 -19 -9 -30 -20z"/>
<path d="M2970 3490 c-11 -11 -20 -24 -20 -30 0 -5 9 -19 20 -30 11 -11 25
-20 30 -20 6 0 19 9 30 20 11 11 20 25 20 30 0 6 -9 19 -20 30 -11 11 -24 20
-30 20 -5 0 -19 -9 -30 -20z"/>
<path d="M3370 3490 c-11 -11 -20 -24 -20 -30 0 -5 9 -19 20 -30 11 -11 25
-20 30 -20 6 0 19 9 30 20 11 11 20 25 20 30 0 6 -9 19 -20 30 -11 11 -24 20
-30 20 -5 0 -19 -9 -30 -20z"/>
<path d="M3770 3490 c-11 -11 -20 -24 -20 -30 0 -5 9 -19 20 -30 11 -11 25
-20 30 -20 6 0 19 9 30 20 11 11 20 25 20 30 0 6 -9 19 -20 30 -11 11 -24 20
-30 20 -5 0 -19 -9 -30 -20z"/>
<path d="M4170 3490 c-11 -11 -20 -24 -20 -30 0 -5 9 -19 20 -30 11 -11 25
-20 30 -20 6 0 19 9 30 20 11 11 20 25 20 30 0 6 -9 19 -20 30 -11 11 -24 20
-30 20 -5 0 -19 -9 -30 -20z"/>
<path d="M4570 3490 c-11 -11 -20 -24 -20 -30 0 -5 9 -19 20 -30 11 -11 25
-20 30 -20 6 0 19 9 30 20 11 11 20 25 20 30 0 6 -9 19 -20 30 -11 11 -24 20
-30 20 -5 0 -19 -9 -30 -20z"/>
<path d="M4970 3490 c-11 -11 -20 -24 -20 -30 0 -5 9 -19 20 -30 11 -11 25
-20 30 -20 6 0 19 9 30 20 11 11 20 25 20 30 0 6 -9 19 -20 30 -11 11 -24 20
-30 20 -5 0 -19 -9 -30 -20z"/>
<path d="M5370 3490 c-11 -11 -20 -24 -20 -30 0 -13 37 -50 50 -50 13 0 50 37
50 50 0 13 -37 50 -50 50 -5 0 -19 -9 -30 -20z"/>
<path d="M5770 3490 c-11 -11 -20 -24 -20 -30 0 -13 37 -50 50 -50 13 0 50 37
50 50 0 13 -37 50 -50 50 -5 0 -19 -9 -30 -20z"/>
<path d="M170 3290 c-11 -11 -20 -24 -20 -30 0 -13 37 -50 50 -50 13 0 50 37
50 50 0 13 -37 50 -50 50 -5 0 -19 -9 -30 -20z"/>
<path d="M570 3290 c-11 -11 -20 -24 -20 -30 0 -13 37 -50 50 -50 13 0 50 37
50 50 0 13 -37 50 -50 50 -5 0 -19 -9 -30 -20z"/>
<path d="M970 3290 c-11 -11 -20 -24 -20 -30 0 -13 37 -50 50 -50 13 0 50 37
50 50 0 6 -9 19 -20 30 -11 11 -24 20 -30 20 -5 0 -19 -9 -30 -20z"/>
<path d="M1370 3290 c-11 -11 -20 -24 -20 -30 0 -5 9 -19 20 -30 11 -11 25
-20 30 -20 6 0 19 9 30 20 11 11 20 25 20 30 0 6 -9 19 -20 30 -11 11 -24 20
-30 20 -5 0 -19 -9 -30 -20z"/>
<path d="M1770 3290 c-11 -11 -20 -24 -20 -30 0 -5 9 -19 20 -30 11 -11 25
-20 30 -20 6 0 19 9 30 20 11 11 20 25 20 30 0 6 -9 19 -20 30 -11 11 -24 20
-30 20 -5 0 -19 -9 -30 -20z"/>
<path d="M2170 3290 c-11 -11 -20 -24 -20 -30 0 -5 9 -19 20 -30 11 -11 25
-20 30 -20 6 0 19 9 30 20 11 11 20 25 20 30 0 6 -9 19 -20 30 -11 11 -24 20
-30 20 -5 0 -19 -9 -30 -20z"/>
<path d="M2570 3290 c-11 -11 -20 -24 -20 -30 0 -5 9 -19 20 -30 11 -11 25
-20 30 -20 6 0 19 9 30 20 11 11 20 25 20 30 0 6 -9 19 -20 30 -11 11 -24 20
-30 20 -5 0 -19 -9 -30 -20z"/>
<path d="M2970 3290 c-11 -11 -20 -24 -20 -30 0 -5 9 -19 20 -30 11 -11 25
-20 30 -20 6 0 19 9 30 20 11 11 20 25 20 30 0 6 -9 19 -20 30 -11 11 -24 20
-30 20 -5 0 -19 -9 -30 -20z"/>
<path d="M3370 3290 c-11 -11 -20 -24 -20 -30 0 -5 9 -19 20 -30 11 -11 25
-20 30 -20 6 0 19 9 30 20 11 11 20 25 20 30 0 6 -9 19 -20 30 -11 11 -24 20
-30 20 -5 0 -19 -9 -30 -20z"/>
<path d="M3770 3290 c-11 -11 -20 -24 -20 -30 0 -5 9 -19 20 -30 11 -11 25
-20 30 -20 6 0 19 9 30 20 11 11 20 25 20 30 0 6 -9 19 -20 30 -11 11 -24 20
-30 20 -5 0 -19 -9 -30 -20z"/>
<path d="M4170 3290 c-11 -11 -20 -24 -20 -30 0 -5 9 -19 20 -30 11 -11 25
-20 30 -20 6 0 19 9 30 20 11 11 20 25 20 30 0 6 -9 19 -20 30 -11 11 -24 20
-30 20 -5 0 -19 -9 -30 -20z"/>
<path d="M4570 3290 c-11 -11 -20 -24 -20 -30 0 -5 9 -19 20 -30 11 -11 25
-20 30 -20 6 0 19 9 30 20 11 11 20 25 20 30 0 6 -9 19 -20 30 -11 11 -24 20
-30 20 -5 0 -19 -9 -30 -20z"/>
<path d="M4970 3290 c-11 -11 -20 -24 -20 -30 0 -5 9 -19 20 -30 11 -11 25
-20 30 -20 6 0 19 9 30 20 11 11 20 25 20 30 0 6 -9 19 -20 30 -11 11 -24 20
-30 20 -5 0 -19 -9 -30 -20z"/>
<path d="M5370 3290 c-11 -11 -20 -24 -20 -30 0 -13 37 -50 50 -50 13 0 50 37
50 50 0 13 -37 50 -50 50 -5 0 -19 -9 -30 -20z"/>
<path d="M5770 3290 c-11 -11 -20 -24 -20 -30 0 -13 37 -50 50 -50 13 0 50 37
50 50 0 13 -37 50 -50 50 -5 0 -19 -9 -30 -20z"/>
<path d="M170 3090 c-11 -11 -20 -24 -20 -30 0 -13 37 -50 50 -50 13 0 50 37
50 50 0 13 -37 50 -50 50 -5 0 -19 -9 -30 -20z"/>
<path d="M570 3090 c-11 -11 -20 -24 -20 -30 0 -13 37 -50 50 -50 13 0 50 37
50 50 0 13 -37 50 -50 50 -5 0 -19 -9 -30 -20z"/>
<path d="M970 3090 c-11 -11 -20 -24 -20 -30 0 -13 37 -50 50 -50 13 0 50 37
50 50 0 6 -9 19 -20 30 -11 11 -24 20 -30 20 -5 0 -19 -9 -30 -20z"/>
<path d="M1370 3090 c-11 -11 -20 -24 -20 -30 0 -5 9 -19 20 -30 11 -11 25
-20 30 -20 6 0 19 9 30 20 11 11 20 25 20 30 0 6 -9 19 -20 30 -11 11 -24 20
-30 20 -5 0 -19 -9 -30 -20z"/>
<path d="M1770 3090 c-11 -11 -20 -24 -20 -30 0 -5 9 -19 20 -30 11 -11 25
-20 30 -20 6 0 19 9 30 20 11 11 20 25 20 30 0 6 -9 19 -20 30 -11 11 -24 20
-30 20 -5 0 -19 -9 -30 -20z"/>
<path d="M2170 3090 c-11 -11 -20 -24 -20 -30 0 -5 9 -19 20 -30 11 -11 25
-20 30 -20 6 0 19 9 30 20 11 11 20 25 20 30 0 6 -9 19 -20 30 -11 11 -24 20
-30 20 -5 0 -19 -9 -30 -20z"/>
<path d="M2570 3090 c-11 -11 -20 -24 -20 -30 0 -5 9 -19 20 -30 11 -11 25
-20 30 -20 6 0 19 9 30 20 11 11 20 25 20 30 0 6 -9 19 -20 30 -11 11 -24 20
-30 20 -5 0 -19 -9 -30 -20z"/>
<path d="M2970 3090 c-11 -11 -20 -24 -20 -30 0 -5 9 -19 20 -30 11 -11 25
-20 30 -20 6 0 19 9 30 20 11 11 20 25 20 30 0 6 -9 19 -20 30 -11 11 -24 20
-30 20 -5 0 -19 -9 -30 -20z"/>
<path d="M3370 3090 c-11 -11 -20 -24 -20 -30 0 -5 9 -19 20 -30 11 -11 25
-20 30 -20 6 0 19 9 30 20 11 11 20 25 20 30 0 6 -9 19 -20 30 -11 11 -24 20
-30 20 -5 0 -19 -9 -30 -20z"/>
<path d="M3770 3090 c-11 -11 -20 -24 -20 -30 0 -5 9 -19 20 -30 11 -11 25
-20 30 -20 6 0 19 9 30 20 11 11 20 25 20 30 0 6 -9 19 -20 30 -11 11 -24 20
-30 20 -5 0 -19 -9 -30 -20z"/>
<path d="M4170 3090 c-11 -11 -20 -24 -20 -30 0 -5 9 -19 20 -30 11 -11 25
-20 30 -20 6 0 19 9 30 20 11 11 20 25 20 30 0 6 -9 19 -20 30 -11 11 -24 20
-30 20 -5 0 -19 -9 -30 -20z"/>
<path d="M4570 3090 c-11 -11 -20 -24 -20 -30 0 -5 9 -19 20 -30 11 -11 25
-20 30 -20 6 0 19 9 30 20 11 11 20 25 20 30 0 6 -9 19 -20 30 -11 11 -24 20
-30 20 -5 0 -19 -9 -30 -20z"/>
<path d="M4970 3090 c-11 -11 -20 -24 -20 -30 0 -5 9 -19 20 -30 11 -11 25
-20 30 -20 6 0 19 9 30 20 11 11 20 25 20 30 0 6 -9 19 -20 30 -11 11 -24 20
-30 20 -5 0 -19 -9 -30 -20z"/>
<path d="M5370 3090 c-11 -11 -20 -24 -20 -30 0 -13 37 -50 50 -50 13 0 50 37
50 50 0 13 -37 50 -50 50 -5 0 -19 -9 -30 -20z"/>
<path d="M5770 3090 c-11 -11 -20 -24 -20 -30 0 -13 37 -50 50 -50 13 0 50 37
50 50 0 13 -37 50 -50 50 -5 0 -19 -9 -30 -20z"/>
<path d="M170 2890 c-11 -11 -20 -24 -20 -30 0 -13 37 -50 50 -50 13 0 50 37
50 50 0 13 -37 50 -50 50 -5 0 -19 -9 -30 -20z"/>
<path d="M570 2890 c-11 -11 -20 -24 -20 -30 0 -13 37 -50 50 -50 13 0 50 37
50 50 0 13 -37 50 -50 50 -5 0 -19 -9 -30 -20z"/>
<path d="M970 2890 c-11 -11 -20 -24 -20 -30 0 -13 37 -50 50 -50 13 0 50 37
50 50 0 6 -9 19 -20 30 -11 11 -24 20 -30 20 -5 0 -19 -9 -30 -20z"/>
<path d="M1370 2890 c-11 -11 -20 -24 -20 -30 0 -5 9 -19 20 -30 11 -11 25
-20 30 -20 6 0 19 9 30 20 11 11 20 25 20 30 0 6 -9 19 -20 30 -11 11 -24 20
-30 20 -5 0 -19 -9 -30 -20z"/>
<path d="M1770 2890 c-11 -11 -20 -24 -20 -30 0 -5 9 -19 20 -30 11 -11 25
-20 30 -20 6 0 19 9 30 20 11 11 20 25 20 30 0 6 -9 19 -20 30 -11 11 -24 20
-30 20 -5 0 -19 -9 -30 -20z"/>
<path d="M2170 2890 c-11 -11 -20 -24 -20 -30 0 -5 9 -19 20 -30 11 -11 25
-20 30 -20 6 0 19 9 30 20 11 11 20 25 20 30 0 6 -9 19 -20 30 -11 11 -24 20
-30 20 -5 0 -19 -9 -30 -20z"/>
<path d="M2570 2890 c-11 -11 -20 -24 -20 -30 0 -5 9 -19 20 -30 11 -11 25
-20 30 -20 6 0 19 9 30 20 11 11 20 25 20 30 0 6 -9 19 -20 30 -11 11 -24 20
-30 20 -5 0 -19 -9 -30 -20z"/>
<path d="M2970 2890 c-11 -11 -20 -24 -20 -30 0 -5 9 -19 20 -30 11 -11 25
-20 30 -20 6 0 19 9 30 20 11 11 20 25 20 30 0 6 -9 19 -20 30 -11 11 -24 20
-30 20 -5 0 -19 -9 -30 -20z"/>
<path d="M3370 2890 c-11 -11 -20 -24 -20 -30 0 -5 9 -19 20 -30 11 -11 25
-20 30 -20 6 0 19 9 30 20 11 11 20 25 20 30 0 6 -9 19 -20 30 -11 11 -24 20
-30 20 -5 0 -19 -9 -30 -20z"/>
<path d="M3770 2890 c-11 -11 -20 -24 -20 -30 0 -5 9 -19 20 -30 11 -11 25
-20 30 -20 6 0 19 9 30 20 11 11 20 25 20 30 0 6 -9 19 -20 30 -11 11 -24 20
-30 20 -5 0 -19 -9 -30 -20z"/>
<path d="M4170 2890 c-11 -11 -20 -24 -20 -30 0 -5 9 -19 20 -30 11 -11 25
-20 30 -20 6 0 19 9 30 20 11 11 20 25 20 30 0 6 -9 19 -20 30 -11 11 -24 20
-30 20 -5 0 -19 -9 -30 -20z"/>
<path d="M4570 2890 c-11 -11 -20 -24 -20 -30 0 -5 9 -19 20 -30 11 -11 25
-20 30 -20 6 0 19 9 30 20 11 11 20 25 20 30 0 6 -9 19 -20 30 -11 11 -24 20
-30 20 -5 0 -19 -9 -30 -20z"/>
<path d="M4970 2890 c-11 -11 -20 -24 -20 -30 0 -5 9 -19 20 -30 11 -11 25
-20 30 -20 6 0 19 9 30 20 11 11 20 25 20 30 0 6 -9 19 -20 30 -11 11 -24 20
-30 20 -5 0 -19 -9 -30 -20z"/>
<path d="M5370 2890 c-11 -11 -20 -24 -20 -30 0 -13 37 -50 50 -50 13 0 50 37
50 50 0 13 -37 50 -50 50 -5 0 -19 -9 -30 -20z"/>
<path d="M5770 2890 c-11 -11 -20 -24 -20 -30 0 -13 37 -50 50 -50 13 0 50 37
50 50 0 13 -37 50 -50 50 -5 0 -19 -9 -30 -20z"/>
<path d="M170 2690 c-11 -11 -20 -24 -20 -30 0 -13 37 -50 50 -50 13 0 50 37
50 50 0 13 -37 50 -50 50 -5 0 -19 -9 -30 -20z"/>
<path d="M570 2690 c-11 -11 -20 -24 -20 -30 0 -13 37 -50 50 -50 13 0 50 37
50 50 0 13 -37 50 -50 50 -5 0 -19 -9 -30 -20z"/>
<path d="M970 2690 c-11 -11 -20 -24 -20 -30 0 -13 37 -50 50 -50 13 0 50 37
50 50 0 6 -9 19 -20 30 -11 11 -24 20 -30 20 -5 0 -19 -9 -30 -20z"/>
<path d="M1370 2690 c-11 -11 -20 -24 -20 -30 0 -5 9 -19 20 -30 11 -11 25
-20 30 -20 6 0 19 9 30 20 11 11 20 25 20 30 0 6 -9 19 -20 30 -11 11 -24 20
-30 20 -5 0 -19 -9 -30 -20z"/>
<path d="M1770 2690 c-11 -11 -20 -24 -20 -30 0 -5 9 -19 20 -30 11 -11 25
-20 30 -20 6 0 19 9 30 20 11 11 20 25 20 30 0 6 -9 19 -20 30 -11 11 -24 20
-30 20 -5 0 -19 -9 -30 -20z"/>
<path d="M2170 2690 c-11 -11 -20 -24 -20 -30 0 -5 9 -19 20 -30 11 -11 25
-20 30 -20 6 0 19 9 30 20 11 11 20 25 20 30 0 6 -9 19 -20 30 -11 11 -24 20
-30 20 -5 0 -19 -9 -30 -20z"/>
<path d="M2570 2690 c-11 -11 -20 -24 -20 -30 0 -5 9 -19 20 -30 11 -11 25
-20 30 -20 6 0 19 9 30 20 11 11 20 25 20 30 0 6 -9 19 -20 30 -11 11 -24 20
-30 20 -5 0 -19 -9 -30 -20z"/>
<path d="M2970 2690 c-11 -11 -20 -24 -20 -30 0 -5 9 -19 20 -30 11 -11 25
-20 30 -20 6 0 19 9 30 20 11 11 20 25 20 30 0 6 -9 19 -20 30 -11 11 -24 20
-30 20 -5 0 -19 -9 -30 -20z"/>
<path d="M3370 2690 c-11 -11 -20 -24 -20 -30 0 -5 9 -19 20 -30 11 -11 25
-20 30 -20 6 0 19 9 30 20 11 11 20 25 20 30 0 6 -9 19 -20 30 -11 11 -24 20
-30 20 -5 0 -19 -9 -30 -20z"/>
<path d="M3770 2690 c-11 -11 -20 -24 -20 -30 0 -5 9 -19 20 -30 11 -11 25
-20 30 -20 6 0 19 9 30 20 11 11 20 25 20 30 0 6 -9 19 -20 30 -11 11 -24 20
-30 20 -5 0 -19 -9 -30 -20z"/>
<path d="M4170 2690 c-11 -11 -20 -24 -20 -30 0 -5 9 -19 20 -30 11 -11 25
-20 30 -20 6 0 19 9 30 20 11 11 20 25 20 30 0 6 -9 19 -20 30 -11 11 -24 20
-30 20 -5 0 -19 -9 -30 -20z"/>
<path d="M4570 2690 c-11 -11 -20 -24 -20 -30 0 -5 9 -19 20 -30 11 -11 25
-20 30 -20 6 0 19 9 30 20 11 11 20 25 20 30 0 6 -9 19 -20 30 -11 11 -24 20
-30 20 -5 0 -19 -9 -30 -20z"/>
<path d="M4970 2690 c-11 -11 -20 -24 -20 -30 0 -5 9 -19 20 -30 11 -11 25
-20 30 -20 6 0 19 9 30 20 11 11 20 25 20 30 0 6 -9 19 -20 30 -11 11 -24 20
-30 20 -5 0 -19 -9 -30 -20z"/>
<path d="M5370 2690 c-11 -11 -20 -24 -20 -30 0 -13 37 -50 50 -50 13 0 50 37
50 50 0 13 -37 50 -50 50 -5 0 -19 -9 -30 -20z"/>
<path d="M5770 2690 c-11 -11 -20 -24 -20 -30 0 -13 37 -50 50 -50 13 0 50 37
50 50 0 13 -37 50 -50 50 -5 0 -19 -9 -30 -20z"/>
<path d="M170 2490 c-11 -11 -20 -24 -20 -30 0 -13 37 -50 50 -50 13 0 50 37
50 50 0 13 -37 50 -50 50 -5 0 -19 -9 -30 -20z"/>
<path d="M570 2490 c-11 -11 -20 -24 -20 -30 0 -13 37 -50 50 -50 13 0 50 37
50 50 0 13 -37 50 -50 50 -5 0 -19 -9 -30 -20z"/>
<path d="M970 2490 c-11 -11 -20 -24 -20 -30 0 -13 37 -50 50 -50 13 0 50 37
50 50 0 6 -9 19 -20 30 -11 11 -24 20 -30 20 -5 0 -19 -9 -30 -20z"/>
<path d="M1370 2490 c-11 -11 -20 -24 -20 -30 0 -5 9 -19 20 -30 11 -11 25
-20 30 -20 6 0 19 9 30 20 11 11 20 25 20 30 0 6 -9 19 -20 30 -11 11 -24 20
-30 20 -5 0 -19 -9 -30 -20z"/>
<path d="M1770 2490 c-11 -11 -20 -24 -20 -30 0 -5 9 -19 20 -30 11 -11 25
-20 30 -20 6 0 19 9 30 20 11 11 20 25 20 30 0 6 -9 19 -20 30 -11 11 -24 20
-30 20 -5 0 -19 -9 -30 -20z"/>
<path d="M2170 2490 c-11 -11 -20 -24 -20 -30 0 -5 9 -19 20 -30 11 -11 25
-20 30 -20 6 0 19 9 30 20 11 11 20 25 20 30 0 6 -9 19 -20 30 -11 11 -24 20
-30 20 -5 0 -19 -9 -30 -20z"/>
<path d="M2570 2490 c-11 -11 -20 -24 -20 -30 0 -5 9 -19 20 -30 11 -11 25
-20 30 -20 6 0 19 9 30 20 11 11 20 25 20 30 0 6 -9 19 -20 30 -11 11 -24 20
-30 20 -5 0 -19 -9 -30 -20z"/>
<path d="M2970 2490 c-11 -11 -20 -24 -20 -30 0 -5 9 -19 20 -30 11 -11 25
-20 30 -20 6 0 19 9 30 20 11 11 20 25 20 30 0 6 -9 19 -20 30 -11 11 -24 20
-30 20 -5 0 -19 -9 -30 -20z"/>
<path d="M3370 2490 c-11 -11 -20 -24 -20 -30 0 -5 9 -19 20 -30 11 -11 25
-20 30 -20 6 0 19 9 30 20 11 11 20 25 20 30 0 6 -9 19 -20 30 -11 11 -24 20
-30 20 -5 0 -19 -9 -30 -20z"/>
<path d="M3770 2490 c-11 -11 -20 -24 -20 -30 0 -5 9 -19 20 -30 11 -11 25
-20 30 -20 6 0 19 9 30 20 11 11 20 25 20 30 0 6 -9 19 -20 30 -11 11 -24 20
-30 20 -5 0 -19 -9 -30 -20z"/>
<path d="M4170 2490 c-11 -11 -20 -24 -20 -30 0 -5 9 -19 20 -30 11 -11 25
-20 30 -20 6 0 19 9 30 20 11 11 20 25 20 30 0 6 -9 19 -20 30 -11 11 -24 20
-30 20 -5 0 -19 -9 -30 -20z"/>
<path d="M4570 2490 c-11 -11 -20 -24 -20 -30 0 -5 9 -19 20 -30 11 -11 25
-20 30 -20 6 0 19 9 30 20 11 11 20 25 20 30 0 6 -9 19 -20 30 -11 11 -24 20
-30 20 -5 0 -19 -9 -30 -20z"/>
<path d="M4970 2490 c-11 -11 -20 -24 -20 -30 0 -5 9 -19 20 -30 11 -11 25
-20 30 -20 6 0 19 9 30 20 11 11 20 25 20 30 0 6 -9 19 -20 30 -11 11 -24 20
-30 20 -5 0 -19 -9 -30 -20z"/>
<path d="M5370 2490 c-11 -11 -20 -24 -20 -30 0 -13 37 -50 50 -50 13 0 50 37
50 50 0 13 -37 50 -50 50 -5 0 -19 -9 -30 -20z"/>
<path d="M5770 2490 c-11 -11 -20 -24 -20 -30 0 -13 37 -50 50 -50 13 0 50 37
50 50 0 13 -37 50 -50 50 -5 0 -19 -9 -30 -20z"/>
<path d="M170 2290 c-11 -11 -20 -24 -20 -30 0 -13 37 -50 50 -50 13 0 50 37
50 50 0 13 -37 50 -50 50 -5 0 -19 -9 -30 -20z"/>
<path d="M570 2290 c-11 -11 -20 -24 -20 -30 0 -13 37 -50 50 -50 13 0 50 37
50 50 0 13 -37 50 -50 50 -5 0 -19 -9 -30 -20z"/>
<path d="M970 2290 c-11 -11 -20 -24 -20 -30 0 -13 37 -50 50 -50 13 0 50 37
50 50 0 6 -9 19 -20 30 -11 11 -24 20 -30 20 -5 0 -19 -9 -30 -20z"/>
<path d="M1370 2290 c-11 -11 -20 -24 -20 -30 0 -5 9 -19 20 -30 11 -11 25
-20 30 -20 6 0 19 9 30 20 11 11 20 25 20 30 0 6 -9 19 -20 30 -11 11 -24 20
-30 20 -5 0 -19 -9 -30 -20z"/>
<path d="M1770 2290 c-11 -11 -20 -24 -20 -30 0 -5 9 -19 20 -30 11 -11 25
-20 30 -20 6 0 19 9 30 20 11 11 20 25 20 30 0 6 -9 19 -20 30 -11 11 -24 20
-30 20 -5 0 -19 -9 -30 -20z"/>
<path d="M2170 2290 c-11 -11 -20 -24 -20 -30 0 -5 9 -19 20 -30 11 -11 25
-20 30 -20 6 0 19 9 30 20 11 11 20 25 20 30 0 6 -9 19 -20 30 -11 11 -24 20
-30 20 -5 0 -19 -9 -30 -20z"/>
<path d="M2570 2290 c-11 -11 -20 -24 -20 -30 0 -5 9 -19 20 -30 11 -11 25
-20 30 -20 6 0 19 9 30 20 11 11 20 25 20 30 0 6 -9 19 -20 30 -11 11 -24 20
-30 20 -5 0 -19 -9 -30 -20z"/>
<path d="M2970 2290 c-11 -11 -20 -24 -20 -30 0 -5 9 -19 20 -30 11 -11 25
-20 30 -20 6 0 19 9 30 20 11 11 20 25 20 30 0 6 -9 19 -20 30 -11 11 -24 20
-30 20 -5 0 -19 -9 -30 -20z"/>
<path d="M3370 2290 c-11 -11 -20 -24 -20 -30 0 -5 9 -19 20 -30 11 -11 25
-20 30 -20 6 0 19 9 30 20 11 11 20 25 20 30 0 6 -9 19 -20 30 -11 11 -24 20
-30 20 -5 0 -19 -9 -30 -20z"/>
<path d="M3770 2290 c-11 -11 -20 -24 -20 -30 0 -5 9 -19 20 -30 11 -11 25
-20 30 -20 6 0 19 9 30 20 11 11 20 25 20 30 0 6 -9 19 -20 30 -11 11 -24 20
-30 20 -5 0 -19 -9 -30 -20z"/>
<path d="M4170 2290 c-11 -11 -20 -24 -20 -30 0 -5 9 -19 20 -30 11 -11 25
-20 30 -20 6 0 19 9 30 20 11 11 20 25 20 30 0 6 -9 19 -20 30 -11 11 -24 20
-30 20 -5 0 -19 -9 -30 -20z"/>
<path d="M4570 2290 c-11 -11 -20 -24 -20 -30 0 -5 9 -19 20 -30 11 -11 25
-20 30 -20 6 0 19 9 30 20 11 11 20 25 20 30 0 6 -9 19 -20 30 -11 11 -24 20
-30 20 -5 0 -19 -9 -30 -20z"/>
<path d="M4970 2290 c-11 -11 -20 -24 -20 -30 0 -5 9 -19 20 -30 11 -11 25
-20 30 -20 6 0 19 9 30 20 11 11 20 25 20 30 0 6 -9 19 -20 30 -11 11 -24 20
-30 20 -5 0 -19 -9 -30 -20z"/>
<path d="M5370 2290 c-11 -11 -20 -24 -20 -30 0 -13 37 -50 50 -50 13 0 50 37
50 50 0 13 -37 50 -50 50 -5 0 -19 -9 -30 -20z"/>
<path d="M5770 2290 c-11 -11 -20 -24 -20 -30 0 -13 37 -50 50 -50 13 0 50 37
50 50 0 13 -37 50 -50 50 -5 0 -19 -9 -30 -20z"/>
<path d="M170 2090 c-11 -11 -20 -24 -20 -30 0 -13 37 -50 50 -50 13 0 50 37
50 50 0 13 -37 50 -50 50 -5 0 -19 -9 -30 -20z"/>
<path d="M570 2090 c-11 -11 -20 -24 -20 -30 0 -13 37 -50 50 -50 13 0 50 37
50 50 0 13 -37 50 -50 50 -5 0 -19 -9 -30 -20z"/>
<path d="M970 2090 c-11 -11 -20 -24 -20 -30 0 -13 37 -50 50 -50 13 0 50 37
50 50 0 6 -9 19 -20 30 -11 11 -24 20 -30 20 -5 0 -19 -9 -30 -20z"/>
<path d="M1370 2090 c-11 -11 -20 -24 -20 -30 0 -5 9 -19 20 -30 11 -11 25
-20 30 -20 6 0 19 9 30 20 11 11 20 25 20 30 0 6 -9 19 -20 30 -11 11 -24 20
-30 20 -5 0 -19 -9 -30 -20z"/>
<path d="M1770 2090 c-11 -11 -20 -24 -20 -30 0 -5 9 -19 20 -30 11 -11 25
-20 30 -20 6 0 19 9 30 20 11 11 20 25 20 30 0 6 -9 19 -20 30 -11 11 -24 20
-30 20 -5 0 -19 -9 -30 -20z"/>
<path d="M2170 2090 c-11 -11 -20 -24 -20 -30 0 -5 9 -19 20 -30 11 -11 25
-20 30 -20 6 0 19 9 30 20 11 11 20 25 20 30 0 6 -9 19 -20 30 -11 11 -24 20
-30 20 -5 0 -19 -9 -30 -20z"/>
<path d="M2570 2090 c-11 -11 -20 -24 -20 -30 0 -5 9 -19 20 -30 11 -11 25
-20 30 -20 6 0 19 9 30 20 11 11 20 25 20 30 0 6 -9 19 -20 30 -11 11 -24 20
-30 20 -5 0 -19 -9 -30 -20z"/>
<path d="M2970 2090 c-11 -11 -20 -24 -20 -30 0 -5 9 -19 20 -30 11 -11 25
-20 30 -20 6 0 19 9 30 20 11 11 20 25 20 30 0 6 -9 19 -20 30 -11 11 -24 20
-30 20 -5 0 -19 -9 -30 -20z"/>
<path d="M3370 2090 c-11 -11 -20 -24 -20 -30 0 -5 9 -19 20 -30 11 -11 25
-20 30 -20 6 0 19 9 30 20 11 11 20 25 20 30 0 6 -9 19 -20 30 -11 11 -24 20
-30 20 -5 0 -19 -9 -30 -20z"/>
<path d="M3770 2090 c-11 -11 -20 -24 -20 -30 0 -5 9 -19 20 -30 11 -11 25
-20 30 -20 6 0 19 9 30 20 11 11 20 25 20 30 0 6 -9 19 -20 30 -11 11 -24 20
-30 20 -5 0 -19 -9 -30 -20z"/>
<path d="M4170 2090 c-11 -11 -20 -24 -20 -30 0 -5 9 -19 20 -30 11 -11 25
-20 30 -20 6 0 19 9 30 20 11 11 20 25 20 30 0 6 -9 19 -20 30 -11 11 -24 20
-30 20 -5 0 -19 -9 -30 -20z"/>
<path d="M4570 2090 c-11 -11 -20 -24 -20 -30 0 -5 9 -19 20 -30 11 -11 25
-20 30 -20 6 0 19 9 30 20 11 11 20 25 20 30 0 6 -9 19 -20 30 -11 11 -24 20
-30 20 -5 0 -19 -9 -30 -20z"/>
<path d="M4970 2090 c-11 -11 -20 -24 -20 -30 0 -5 9 -19 20 -30 11 -11 25
-20 30 -20 6 0 19 9 30 20 11 11 20 25 20 30 0 6 -9 19 -20 30 -11 11 -24 20
-30 20 -5 0 -19 -9 -30 -20z"/>
<path d="M5370 2090 c-11 -11 -20 -24 -20 -30 0 -13 37 -50 50 -50 13 0 50 37
50 50 0 13 -37 50 -50 50 -5 0 -19 -9 -30 -20z"/>
<path d="M5770 2090 c-11 -11 -20 -24 -20 -30 0 -13 37 -50 50 -50 13 0 50 37
50 50 0 13 -37 50 -50 50 -5 0 -19 -9 -30 -20z"/>
<path d="M170 1890 c-11 -11 -20 -24 -20 -30 0 -13 37 -50 50 -50 13 0 50 37
50 50 0 13 -37 50 -50 50 -5 0 -19 -9 -30 -20z"/>
<path d="M570 1890 c-11 -11 -20 -24 -20 -30 0 -13 37 -50 50 -50 13 0 50 37
50 50 0 13 -37 50 -50 50 -5 0 -19 -9 -30 -20z"/>
<path d="M970 1890 c-11 -11 -20 -24 -20 -30 0 -13 37 -50 50 -50 13 0 50 37
50 50 0 6 -9 19 -20 30 -11 11 -24 20 -30 20 -5 0 -19 -9 -30 -20z"/>
<path d="M1370 1890 c-11 -11 -20 -24 -20 -30 0 -5 9 -19 20 -30 11 -11 25
-20 30 -20 6 0 19 9 30 20 11 11 20 25 20 30 0 6 -9 19 -20 30 -11 11 -24 20
-30 20 -5 0 -19 -9 -30 -20z"/>
<path d="M1770 1890 c-11 -11 -20 -24 -20 -30 0 -5 9 -19 20 -30 11 -11 25
-20 30 -20 6 0 19 9 30 20 11 11 20 25 20 30 0 6 -9 19 -20 30 -11 11 -24 20
-30 20 -5 0 -19 -9 -30 -20z"/>
<path d="M2170 1890 c-11 -11 -20 -24 -20 -30 0 -5 9 -19 20 -30 11 -11 25
-20 30 -20 6 0 19 9 30 20 11 11 20 25 20 30 0 6 -9 19 -20 30 -11 11 -24 20
-30 20 -5 0 -19 -9 -30 -20z"/>
<path d="M2570 1890 c-11 -11 -20 -24 -20 -30 0 -5 9 -19 20 -30 11 -11 25
-20 30 -20 6 0 19 9 30 20 11 11 20 25 20 30 0 6 -9 19 -20 30 -11 11 -24 20
-30 20 -5 0 -19 -9 -30 -20z"/>
<path d="M2970 1890 c-11 -11 -20 -24 -20 -30 0 -5 9 -19 20 -30 11 -11 25
-20 30 -20 6 0 19 9 30 20 11 11 20 25 20 30 0 6 -9 19 -20 30 -11 11 -24 20
-30 20 -5 0 -19 -9 -30 -20z"/>
<path d="M3370 1890 c-11 -11 -20 -24 -20 -30 0 -5 9 -19 20 -30 11 -11 25
-20 30 -20 6 0 19 9 30 20 11 11 20 25 20 30 0 6 -9 19 -20 30 -11 11 -24 20
-30 20 -5 0 -19 -9 -30 -20z"/>
<path d="M3770 1890 c-11 -11 -20 -24 -20 -30 0 -5 9 -19 20 -30 11 -11 25
-20 30 -20 6 0 19 9 30 20 11 11 20 25 20 30 0 6 -9 19 -20 30 -11 11 -24 20
-30 20 -5 0 -19 -9 -30 -20z"/>
<path d="M4170 1890 c-11 -11 -20 -24 -20 -30 0 -5 9 -19 20 -30 11 -11 25
-20 30 -20 6 0 19 9 30 20 11 11 20 25 20 30 0 6 -9 19 -20 30 -11 11 -24 20
-30 20 -5 0 -19 -9 -30 -20z"/>
<path d="M4570 1890 c-11 -11 -20 -24 -20 -30 0 -5 9 -19 20 -30 11 -11 25
-20 30 -20 6 0 19 9 30 20 11 11 20 25 20 30 0 6 -9 19 -20 30 -11 11 -24 20
-30 20 -5 0 -19 -9 -30 -20z"/>
<path d="M4970 1890 c-11 -11 -20 -24 -20 -30 0 -5 9 -19 20 -30 11 -11 25
-20 30 -20 6 0 19 9 30 20 11 11 20 25 20 30 0 6 -9 19 -20 30 -11 11 -24 20
-30 20 -5 0 -19 -9 -30 -20z"/>
<path d="M5370 1890 c-11 -11 -20 -24 -20 -30 0 -13 37 -50 50 -50 13 0 50 37
50 50 0 13 -37 50 -50 50 -5 0 -19 -9 -30 -20z"/>
<path d="M5770 1890 c-11 -11 -20 -24 -20 -30 0 -13 37 -50 50 -50 13 0 50 37
50 50 0 13 -37 50 -50 50 -5 0 -19 -9 -30 -20z"/>
<path d="M170 1690 c-11 -11 -20 -24 -20 -30 0 -13 37 -50 50 -50 13 0 50 37
50 50 0 13 -37 50 -50 50 -5 0 -19 -9 -30 -20z"/>
<path d="M570 1690 c-11 -11 -20 -24 -20 -30 0 -13 37 -50 50 -50 13 0 50 37
50 50 0 13 -37 50 -50 50 -5 0 -19 -9 -30 -20z"/>
<path d="M970 1690 c-11 -11 -20 -24 -20 -30 0 -13 37 -50 50 -50 13 0 50 37
50 50 0 6 -9 19 -20 30 -11 11 -24 20 -30 20 -5 0 -19 -9 -30 -20z"/>
<path d="M1370 1690 c-11 -11 -20 -24 -20 -30 0 -5 9 -19 20 -30 11 -11 25
-20 30 -20 6 0 19 9 30 20 11 11 20 25 20 30 0 6 -9 19 -20 30 -11 11 -24 20
-30 20 -5 0 -19 -9 -30 -20z"/>
<path d="M1770 1690 c-11 -11 -20 -24 -20 -30 0 -5 9 -19 20 -30 11 -11 25
-20 30 -20 6 0 19 9 30 20 11 11 20 25 20 30 0 6 -9 19 -20 30 -11 11 -24 20
-30 20 -5 0 -19 -9 -30 -20z"/>
<path d="M2170 1690 c-11 -11 -20 -24 -20 -30 0 -5 9 -19 20 -30 11 -11 25
-20 30 -20 6 0 19 9 30 20 11 11 20 25 20 30 0 6 -9 19 -20 30 -11 11 -24 20
-30 20 -5 0 -19 -9 -30 -20z"/>
<path d="M2570 1690 c-11 -11 -20 -24 -20 -30 0 -5 9 -19 20 -30 11 -11 25
-20 30 -20 6 0 19 9 30 20 11 11 20 25 20 30 0 6 -9 19 -20 30 -11 11 -24 20
-30 20 -5 0 -19 -9 -30 -20z"/>
<path d="M2970 1690 c-11 -11 -20 -24 -20 -30 0 -5 9 -19 20 -30 11 -11 25
-20 30 -20 6 0 19 9 30 20 11 11 20 25 20 30 0 6 -9 19 -20 30 -11 11 -24 20
-30 20 -5 0 -19 -9 -30 -20z"/>
<path d="M3370 1690 c-11 -11 -20 -24 -20 -30 0 -5 9 -19 20 -30 11 -11 25
-20 30 -20 6 0 19 9 30 20 11 11 20 25 20 30 0 6 -9 19 -20 30 -11 11 -24 20
-30 20 -5 0 -19 -9 -30 -20z"/>
<path d="M3770 1690 c-11 -11 -20 -24 -20 -30 0 -5 9 -19 20 -30 11 -11 25
-20 30 -20 6 0 19 9 30 20 11 11 20 25 20 30 0 6 -9 19 -20 30 -11 11 -24 20
-30 20 -5 0 -19 -9 -30 -20z"/>
<path d="M4170 1690 c-11 -11 -20 -24 -20 -30 0 -5 9 -19 20 -30 11 -11 25
-20 30 -20 6 0 19 9 30 20 11 11 20 25 20 30 0 6 -9 19 -20 30 -11 11 -24 20
-30 20 -5 0 -19 -9 -30 -20z"/>
<path d="M4570 1690 c-11 -11 -20 -24 -20 -30 0 -5 9 -19 20 -30 11 -11 25
-20 30 -20 6 0 19 9 30 20 11 11 20 25 20 30 0 6 -9 19 -20 30 -11 11 -24 20
-30 20 -5 0 -19 -9 -30 -20z"/>
<path d="M4970 1690 c-11 -11 -20 -24 -20 -30 0 -5 9 -19 20 -30 11 -11 25
-20 30 -20 6 0 19 9 30 20 11 11 20 25 20 30 0 6 -9 19 -20 30 -11 11 -24 20
-30 20 -5 0 -19 -9 -30 -20z"/>
<path d="M5370 1690 c-11 -11 -20 -24 -20 -30 0 -13 37 -50 50 -50 13 0 50 37
50 50 0 13 -37 50 -50 50 -5 0 -19 -9 -30 -20z"/>
<path d="M5770 1690 c-11 -11 -20 -24 -20 -30 0 -13 37 -50 50 -50 13 0 50 37
50 50 0 13 -37 50 -50 50 -5 0 -19 -9 -30 -20z"/>
<path d="M170 1490 c-11 -11 -20 -24 -20 -30 0 -13 37 -50 50 -50 13 0 50 37
50 50 0 13 -37 50 -50 50 -5 0 -19 -9 -30 -20z"/>
<path d="M570 1490 c-11 -11 -20 -24 -20 -30 0 -13 37 -50 50 -50 13 0 50 37
50 50 0 13 -37 50 -50 50 -5 0 -19 -9 -30 -20z"/>
<path d="M970 1490 c-11 -11 -20 -24 -20 -30 0 -13 37 -50 50 -50 13 0 50 37
50 50 0 6 -9 19 -20 30 -11 11 -24 20 -30 20 -5 0 -19 -9 -30 -20z"/>
<path d="M1370 1490 c-11 -11 -20 -24 -20 -30 0 -5 9 -19 20 -30 11 -11 25
-20 30 -20 6 0 19 9 30 20 11 11 20 25 20 30 0 6 -9 19 -20 30 -11 11 -24 20
-30 20 -5 0 -19 -9 -30 -20z"/>
<path d="M1770 1490 c-11 -11 -20 -24 -20 -30 0 -5 9 -19 20 -30 11 -11 25
-20 30 -20 6 0 19 9 30 20 11 11 20 25 20 30 0 6 -9 19 -20 30 -11 11 -24 20
-30 20 -5 0 -19 -9 -30 -20z"/>
<path d="M2170 1490 c-11 -11 -20 -24 -20 -30 0 -5 9 -19 20 -30 11 -11 25
-20 30 -20 6 0 19 9 30 20 11 11 20 25 20 30 0 6 -9 19 -20 30 -11 11 -24 20
-30 20 -5 0 -19 -9 -30 -20z"/>
<path d="M2570 1490 c-11 -11 -20 -24 -20 -30 0 -5 9 -19 20 -30 11 -11 25
-20 30 -20 6 0 19 9 30 20 11 11 20 25 20 30 0 6 -9 19 -20 30 -11 11 -24 20
-30 20 -5 0 -19 -9 -30 -20z"/>
<path d="M2970 1490 c-11 -11 -20 -24 -20 -30 0 -5 9 -19 20 -30 11 -11 25
-20 30 -20 6 0 19 9 30 20 11 11 20 25 20 30 0 6 -9 19 -20 30 -11 11 -24 20
-30 20 -5 0 -19 -9 -30 -20z"/>
<path d="M3370 1490 c-11 -11 -20 -24 -20 -30 0 -5 9 -19 20 -30 11 -11 25
-20 30 -20 6 0 19 9 30 20 11 11 20 25 20 30 0 6 -9 19 -20 30 -11 11 -24 20
-30 20 -5 0 -19 -9 -30 -20z"/>
<path d="M3770 1490 c-11 -11 -20 -24 -20 -30 0 -5 9 -19 20 -30 11 -11 25
-20 30 -20 6 0 19 9 30 20 11 11 20 25 20 30 0 6 -9 19 -20 30 -11 11 -24 20
-30 20 -5 0 -19 -9 -30 -20z"/>
<path d="M4170 1490 c-11 -11 -20 -24 -20 -30 0 -5 9 -19 20 -30 11 -11 25
-20 30 -20 6 0 19 9 30 20 11 11 20 25 20 30 0 6 -9 19 -20 30 -11 11 -24 20
-30 20 -5 0 -19 -9 -30 -20z"/>
<path d="M4570 1490 c-11 -11 -20 -24 -20 -30 0 -5 9 -19 20 -30 11 -11 25
-20 30 -20 6 0 19 9 30 20 11 11 20 25 20 30 0 6 -9 19 -20 30 -11 11 -24 20
-30 20 -5 0 -19 -9 -30 -20z"/>
<path d="M4970 1490 c-11 -11 -20 -24 -20 -30 0 -5 9 -19 20 -30 11 -11 25
-20 30 -20 6 0 19 9 30 20 11 11 20 25 20 30 0 6 -9 19 -20 30 -11 11 -24 20
-30 20 -5 0 -19 -9 -30 -20z"/>
<path d="M5370 1490 c-11 -11 -20 -24 -20 -30 0 -13 37 -50 50 -50 13 0 50 37
50 50 0 13 -37 50 -50 50 -5 0 -19 -9 -30 -20z"/>
<path d="M5770 1490 c-11 -11 -20 -24 -20 -30 0 -13 37 -50 50 -50 13 0 50 37
50 50 0 13 -37 50 -50 50 -5 0 -19 -9 -30 -20z"/>
<path d="M170 1290 c-11 -11 -20 -24 -20 -30 0 -13 37 -50 50 -50 13 0 50 37
50 50 0 13 -37 50 -50 50 -5 0 -19 -9 -30 -20z"/>
<path d="M570 1290 c-11 -11 -20 -24 -20 -30 0 -13 37 -50 50 -50 13 0 50 37
50 50 0 13 -37 50 -50 50 -5 0 -19 -9 -30 -20z"/>
<path d="M970 1290 c-11 -11 -20 -24 -20 -30 0 -5 9 -19 20 -30 11 -11 25 -20
30 -20 6 0 19 9 30 20 11 11 20 25 20 30 0 6 -9 19 -20 30 -11 11 -24 20 -30
20 -5 0 -19 -9 -30 -20z"/>
<path d="M1370 1290 c-11 -11 -20 -24 -20 -30 0 -13 37 -50 50 -50 13 0 50 37
50 50 0 6 -9 19 -20 30 -11 11 -24 20 -30 20 -5 0 -19 -9 -30 -20z"/>
<path d="M1770 1290 c-11 -11 -20 -24 -20 -30 0 -13 37 -50 50 -50 13 0 50 37
50 50 0 6 -9 19 -20 30 -11 11 -24 20 -30 20 -5 0 -19 -9 -30 -20z"/>
<path d="M2170 1290 c-11 -11 -20 -24 -20 -30 0 -13 37 -50 50 -50 13 0 50 37
50 50 0 6 -9 19 -20 30 -11 11 -24 20 -30 20 -5 0 -19 -9 -30 -20z"/>
<path d="M2570 1290 c-11 -11 -20 -24 -20 -30 0 -13 37 -50 50 -50 13 0 50 37
50 50 0 6 -9 19 -20 30 -11 11 -24 20 -30 20 -5 0 -19 -9 -30 -20z"/>
<path d="M2970 1290 c-11 -11 -20 -24 -20 -30 0 -13 37 -50 50 -50 13 0 50 37
50 50 0 6 -9 19 -20 30 -11 11 -24 20 -30 20 -5 0 -19 -9 -30 -20z"/>
<path d="M3370 1290 c-11 -11 -20 -24 -20 -30 0 -13 37 -50 50 -50 13 0 50 37
50 50 0 6 -9 19 -20 30 -11 11 -24 20 -30 20 -5 0 -19 -9 -30 -20z"/>
<path d="M3770 1290 c-11 -11 -20 -24 -20 -30 0 -13 37 -50 50 -50 13 0 50 37
50 50 0 6 -9 19 -20 30 -11 11 -24 20 -30 20 -5 0 -19 -9 -30 -20z"/>
<path d="M4170 1290 c-11 -11 -20 -24 -20 -30 0 -13 37 -50 50 -50 13 0 50 37
50 50 0 6 -9 19 -20 30 -11 11 -24 20 -30 20 -5 0 -19 -9 -30 -20z"/>
<path d="M4570 1290 c-11 -11 -20 -24 -20 -30 0 -13 37 -50 50 -50 13 0 50 37
50 50 0 6 -9 19 -20 30 -11 11 -24 20 -30 20 -5 0 -19 -9 -30 -20z"/>
<path d="M4970 1290 c-11 -11 -20 -24 -20 -30 0 -13 37 -50 50 -50 13 0 50 37
50 50 0 6 -9 19 -20 30 -11 11 -24 20 -30 20 -5 0 -19 -9 -30 -20z"/>
<path d="M5370 1290 c-11 -11 -20 -24 -20 -30 0 -13 37 -50 50 -50 13 0 50 37
50 50 0 13 -37 50 -50 50 -5 0 -19 -9 -30 -20z"/>
<path d="M5770 1290 c-11 -11 -20 -24 -20 -30 0 -13 37 -50 50 -50 13 0 50 37
50 50 0 13 -37 50 -50 50 -5 0 -19 -9 -30 -20z"/>
<path d="M170 1090 c-11 -11 -20 -24 -20 -30 0 -13 37 -50 50 -50 13 0 50 37
50 50 0 13 -37 50 -50 50 -5 0 -19 -9 -30 -20z"/>
<path d="M570 1090 c-11 -11 -20 -24 -20 -30 0 -13 37 -50 50 -50 13 0 50 37
50 50 0 13 -37 50 -50 50 -5 0 -19 -9 -30 -20z"/>
<path d="M970 1090 c-11 -11 -20 -24 -20 -30 0 -5 9 -19 20 -30 11 -11 25 -20
30 -20 6 0 19 9 30 20 11 11 20 25 20 30 0 6 -9 19 -20 30 -11 11 -24 20 -30
20 -5 0 -19 -9 -30 -20z"/>
<path d="M1370 1090 c-11 -11 -20 -24 -20 -30 0 -13 37 -50 50 -50 13 0 50 37
50 50 0 6 -9 19 -20 30 -11 11 -24 20 -30 20 -5 0 -19 -9 -30 -20z"/>
<path d="M1770 1090 c-11 -11 -20 -24 -20 -30 0 -13 37 -50 50 -50 13 0 50 37
50 50 0 6 -9 19 -20 30 -11 11 -24 20 -30 20 -5 0 -19 -9 -30 -20z"/>
<path d="M2170 1090 c-11 -11 -20 -24 -20 -30 0 -13 37 -50 50 -50 13 0 50 37
50 50 0 6 -9 19 -20 30 -11 11 -24 20 -30 20 -5 0 -19 -9 -30 -20z"/>
<path d="M2570 1090 c-11 -11 -20 -24 -20 -30 0 -13 37 -50 50 -50 13 0 50 37
50 50 0 6 -9 19 -20 30 -11 11 -24 20 -30 20 -5 0 -19 -9 -30 -20z"/>
<path d="M2970 1090 c-11 -11 -20 -24 -20 -30 0 -13 37 -50 50 -50 13 0 50 37
50 50 0 6 -9 19 -20 30 -11 11 -24 20 -30 20 -5 0 -19 -9 -30 -20z"/>
<path d="M3370 1090 c-11 -11 -20 -24 -20 -30 0 -13 37 -50 50 -50 13 0 50 37
50 50 0 6 -9 19 -20 30 -11 11 -24 20 -30 20 -5 0 -19 -9 -30 -20z"/>
<path d="M3770 1090 c-11 -11 -20 -24 -20 -30 0 -13 37 -50 50 -50 13 0 50 37
50 50 0 6 -9 19 -20 30 -11 11 -24 20 -30 20 -5 0 -19 -9 -30 -20z"/>
<path d="M4170 1090 c-11 -11 -20 -24 -20 -30 0 -13 37 -50 50 -50 13 0 50 37
50 50 0 6 -9 19 -20 30 -11 11 -24 20 -30 20 -5 0 -19 -9 -30 -20z"/>
<path d="M4570 1090 c-11 -11 -20 -24 -20 -30 0 -13 37 -50 50 -50 13 0 50 37
50 50 0 6 -9 19 -20 30 -11 11 -24 20 -30 20 -5 0 -19 -9 -30 -20z"/>
<path d="M4970 1090 c-11 -11 -20 -24 -20 -30 0 -13 37 -50 50 -50 13 0 50 37
50 50 0 6 -9 19 -20 30 -11 11 -24 20 -30 20 -5 0 -19 -9 -30 -20z"/>
<path d="M5370 1090 c-11 -11 -20 -24 -20 -30 0 -13 37 -50 50 -50 13 0 50 37
50 50 0 13 -37 50 -50 50 -5 0 -19 -9 -30 -20z"/>
<path d="M5770 1090 c-11 -11 -20 -24 -20 -30 0 -13 37 -50 50 -50 13 0 50 37
50 50 0 13 -37 50 -50 50 -5 0 -19 -9 -30 -20z"/>
<path d="M170 890 c-11 -11 -20 -24 -20 -30 0 -13 37 -50 50 -50 13 0 50 37
50 50 0 13 -37 50 -50 50 -5 0 -19 -9 -30 -20z"/>
<path d="M570 890 c-11 -11 -20 -24 -20 -30 0 -13 37 -50 50 -50 13 0 50 37
50 50 0 13 -37 50 -50 50 -5 0 -19 -9 -30 -20z"/>
<path d="M970 890 c-11 -11 -20 -24 -20 -30 0 -5 9 -19 20 -30 11 -11 25 -20
30 -20 6 0 19 9 30 20 11 11 20 25 20 30 0 6 -9 19 -20 30 -11 11 -24 20 -30
20 -5 0 -19 -9 -30 -20z"/>
<path d="M1370 890 c-11 -11 -20 -24 -20 -30 0 -13 37 -50 50 -50 13 0 50 37
50 50 0 6 -9 19 -20 30 -11 11 -24 20 -30 20 -5 0 -19 -9 -30 -20z"/>
<path d="M1770 890 c-11 -11 -20 -24 -20 -30 0 -13 37 -50 50 -50 13 0 50 37
50 50 0 6 -9 19 -20 30 -11 11 -24 20 -30 20 -5 0 -19 -9 -30 -20z"/>
<path d="M2170 890 c-11 -11 -20 -24 -20 -30 0 -13 37 -50 50 -50 13 0 50 37
50 50 0 6 -9 19 -20 30 -11 11 -24 20 -30 20 -5 0 -19 -9 -30 -20z"/>
<path d="M2570 890 c-11 -11 -20 -24 -20 -30 0 -13 37 -50 50 -50 13 0 50 37
50 50 0 6 -9 19 -20 30 -11 11 -24 20 -30 20 -5 0 -19 -9 -30 -20z"/>
<path d="M2970 890 c-11 -11 -20 -24 -20 -30 0 -13 37 -50 50 -50 13 0 50 37
50 50 0 6 -9 19 -20 30 -11 11 -24 20 -30 20 -5 0 -19 -9 -30 -20z"/>
<path d="M3370 890 c-11 -11 -20 -24 -20 -30 0 -13 37 -50 50 -50 13 0 50 37
50 50 0 6 -9 19 -20 30 -11 11 -24 20 -30 20 -5 0 -19 -9 -30 -20z"/>
<path d="M3770 890 c-11 -11 -20 -24 -20 -30 0 -13 37 -50 50 -50 13 0 50 37
50 50 0 6 -9 19 -20 30 -11 11 -24 20 -30 20 -5 0 -19 -9 -30 -20z"/>
<path d="M4170 890 c-11 -11 -20 -24 -20 -30 0 -13 37 -50 50 -50 13 0 50 37
50 50 0 6 -9 19 -20 30 -11 11 -24 20 -30 20 -5 0 -19 -9 -30 -20z"/>
<path d="M4570 890 c-11 -11 -20 -24 -20 -30 0 -13 37 -50 50 -50 13 0 50 37
50 50 0 6 -9 19 -20 30 -11 11 -24 20 -30 20 -5 0 -19 -9 -30 -20z"/>
<path d="M4970 890 c-11 -11 -20 -24 -20 -30 0 -13 37 -50 50 -50 13 0 50 37
50 50 0 6 -9 19 -20 30 -11 11 -24 20 -30 20 -5 0 -19 -9 -30 -20z"/>
<path d="M5370 890 c-11 -11 -20 -24 -20 -30 0 -13 37 -50 50 -50 13 0 50 37
50 50 0 13 -37 50 -50 50 -5 0 -19 -9 -30 -20z"/>
<path d="M5770 890 c-11 -11 -20 -24 -20 -30 0 -13 37 -50 50 -50 13 0 50 37
50 50 0 13 -37 50 -50 50 -5 0 -19 -9 -30 -20z"/>
<path d="M170 690 c-11 -11 -20 -24 -20 -30 0 -13 37 -50 50 -50 13 0 50 37
50 50 0 13 -37 50 -50 50 -5 0 -19 -9 -30 -20z"/>
<path d="M570 690 c-11 -11 -20 -24 -20 -30 0 -13 37 -50 50 -50 13 0 50 37
50 50 0 13 -37 50 -50 50 -5 0 -19 -9 -30 -20z"/>
<path d="M970 690 c-11 -11 -20 -24 -20 -30 0 -5 9 -19 20 -30 11 -11 25 -20
30 -20 6 0 19 9 30 20 11 11 20 25 20 30 0 6 -9 19 -20 30 -11 11 -24 20 -30
20 -5 0 -19 -9 -30 -20z"/>
<path d="M1370 690 c-11 -11 -20 -24 -20 -30 0 -13 37 -50 50 -50 13 0 50 37
50 50 0 6 -9 19 -20 30 -11 11 -24 20 -30 20 -5 0 -19 -9 -30 -20z"/>
<path d="M1770 690 c-11 -11 -20 -24 -20 -30 0 -13 37 -50 50 -50 13 0 50 37
50 50 0 6 -9 19 -20 30 -11 11 -24 20 -30 20 -5 0 -19 -9 -30 -20z"/>
<path d="M2170 690 c-11 -11 -20 -24 -20 -30 0 -13 37 -50 50 -50 13 0 50 37
50 50 0 6 -9 19 -20 30 -11 11 -24 20 -30 20 -5 0 -19 -9 -30 -20z"/>
<path d="M2570 690 c-11 -11 -20 -24 -20 -30 0 -13 37 -50 50 -50 13 0 50 37
50 50 0 6 -9 19 -20 30 -11 11 -24 20 -30 20 -5 0 -19 -9 -30 -20z"/>
<path d="M2970 690 c-11 -11 -20 -24 -20 -30 0 -13 37 -50 50 -50 13 0 50 37
50 50 0 6 -9 19 -20 30 -11 11 -24 20 -30 20 -5 0 -19 -9 -30 -20z"/>
<path d="M3370 690 c-11 -11 -20 -24 -20 -30 0 -13 37 -50 50 -50 13 0 50 37
50 50 0 6 -9 19 -20 30 -11 11 -24 20 -30 20 -5 0 -19 -9 -30 -20z"/>
<path d="M3770 690 c-11 -11 -20 -24 -20 -30 0 -13 37 -50 50 -50 13 0 50 37
50 50 0 6 -9 19 -20 30 -11 11 -24 20 -30 20 -5 0 -19 -9 -30 -20z"/>
<path d="M4170 690 c-11 -11 -20 -24 -20 -30 0 -13 37 -50 50 -50 13 0 50 37
50 50 0 6 -9 19 -20 30 -11 11 -24 20 -30 20 -5 0 -19 -9 -30 -20z"/>
<path d="M4570 690 c-11 -11 -20 -24 -20 -30 0 -13 37 -50 50 -50 13 0 50 37
50 50 0 6 -9 19 -20 30 -11 11 -24 20 -30 20 -5 0 -19 -9 -30 -20z"/>
<path d="M4970 690 c-11 -11 -20 -24 -20 -30 0 -13 37 -50 50 -50 13 0 50 37
50 50 0 6 -9 19 -20 30 -11 11 -24 20 -30 20 -5 0 -19 -9 -30 -20z"/>
<path d="M5370 690 c-11 -11 -20 -24 -20 -30 0 -13 37 -50 50 -50 13 0 50 37
50 50 0 13 -37 50 -50 50 -5 0 -19 -9 -30 -20z"/>
<path d="M5770 690 c-11 -11 -20 -24 -20 -30 0 -13 37 -50 50 -50 13 0 50 37
50 50 0 13 -37 50 -50 50 -5 0 -19 -9 -30 -20z"/>
<path d="M170 490 c-11 -11 -20 -24 -20 -30 0 -5 9 -19 20 -30 11 -11 25 -20
30 -20 6 0 19 9 30 20 11 11 20 25 20 30 0 6 -9 19 -20 30 -11 11 -24 20 -30
20 -5 0 -19 -9 -30 -20z"/>
<path d="M570 490 c-11 -11 -20 -24 -20 -30 0 -5 9 -19 20 -30 11 -11 25 -20
30 -20 6 0 19 9 30 20 11 11 20 25 20 30 0 6 -9 19 -20 30 -11 11 -24 20 -30
20 -5 0 -19 -9 -30 -20z"/>
<path d="M970 490 c-11 -11 -20 -24 -20 -30 0 -13 37 -50 50 -50 13 0 50 37
50 50 0 13 -37 50 -50 50 -5 0 -19 -9 -30 -20z"/>
<path d="M1370 490 c-11 -11 -20 -24 -20 -30 0 -13 37 -50 50 -50 13 0 50 37
50 50 0 13 -37 50 -50 50 -5 0 -19 -9 -30 -20z"/>
<path d="M1770 490 c-11 -11 -20 -24 -20 -30 0 -13 37 -50 50 -50 13 0 50 37
50 50 0 13 -37 50 -50 50 -5 0 -19 -9 -30 -20z"/>
<path d="M2170 490 c-11 -11 -20 -24 -20 -30 0 -13 37 -50 50 -50 13 0 50 37
50 50 0 13 -37 50 -50 50 -5 0 -19 -9 -30 -20z"/>
<path d="M2570 490 c-11 -11 -20 -24 -20 -30 0 -13 37 -50 50 -50 13 0 50 37
50 50 0 13 -37 50 -50 50 -5 0 -19 -9 -30 -20z"/>
<path d="M2970 490 c-11 -11 -20 -24 -20 -30 0 -13 37 -50 50 -50 13 0 50 37
50 50 0 13 -37 50 -50 50 -5 0 -19 -9 -30 -20z"/>
<path d="M3370 490 c-11 -11 -20 -24 -20 -30 0 -13 37 -50 50 -50 13 0 50 37
50 50 0 13 -37 50 -50 50 -5 0 -19 -9 -30 -20z"/>
<path d="M3770 490 c-11 -11 -20 -24 -20 -30 0 -13 37 -50 50 -50 13 0 50 37
50 50 0 13 -37 50 -50 50 -5 0 -19 -9 -30 -20z"/>
<path d="M4170 490 c-11 -11 -20 -24 -20 -30 0 -13 37 -50 50 -50 13 0 50 37
50 50 0 13 -37 50 -50 50 -5 0 -19 -9 -30 -20z"/>
<path d="M4570 490 c-11 -11 -20 -24 -20 -30 0 -13 37 -50 50 -50 13 0 50 37
50 50 0 13 -37 50 -50 50 -5 0 -19 -9 -30 -20z"/>
<path d="M4970 490 c-11 -11 -20 -24 -20 -30 0 -13 37 -50 50 -50 13 0 50 37
50 50 0 13 -37 50 -50 50 -5 0 -19 -9 -30 -20z"/>
<path d="M5370 490 c-11 -11 -20 -24 -20 -30 0 -13 37 -50 50 -50 13 0 50 37
50 50 0 13 -37 50 -50 50 -5 0 -19 -9 -30 -20z"/>
<path d="M5770 490 c-11 -11 -20 -24 -20 -30 0 -13 37 -50 50 -50 13 0 50 37
50 50 0 13 -37 50 -50 50 -5 0 -19 -9 -30 -20z"/>
<path d="M170 290 c-11 -11 -20 -24 -20 -30 0 -5 9 -19 20 -30 11 -11 25 -20
30 -20 6 0 19 9 30 20 11 11 20 25 20 30 0 6 -9 19 -20 30 -11 11 -24 20 -30
20 -5 0 -19 -9 -30 -20z"/>
<path d="M570 290 c-11 -11 -20 -24 -20 -30 0 -5 9 -19 20 -30 11 -11 25 -20
30 -20 6 0 19 9 30 20 11 11 20 25 20 30 0 6 -9 19 -20 30 -11 11 -24 20 -30
20 -5 0 -19 -9 -30 -20z"/>
<path d="M970 290 c-11 -11 -20 -24 -20 -30 0 -13 37 -50 50 -50 13 0 50 37
50 50 0 13 -37 50 -50 50 -5 0 -19 -9 -30 -20z"/>
<path d="M1370 290 c-11 -11 -20 -24 -20 -30 0 -13 37 -50 50 -50 13 0 50 37
50 50 0 13 -37 50 -50 50 -5 0 -19 -9 -30 -20z"/>
<path d="M1770 290 c-11 -11 -20 -24 -20 -30 0 -13 37 -50 50 -50 13 0 50 37
50 50 0 13 -37 50 -50 50 -5 0 -19 -9 -30 -20z"/>
<path d="M2170 290 c-11 -11 -20 -24 -20 -30 0 -13 37 -50 50 -50 13 0 50 37
50 50 0 13 -37 50 -50 50 -5 0 -19 -9 -30 -20z"/>
<path d="M2570 290 c-11 -11 -20 -24 -20 -30 0 -13 37 -50 50 -50 13 0 50 37
50 50 0 13 -37 50 -50 50 -5 0 -19 -9 -30 -20z"/>
<path d="M2970 290 c-11 -11 -20 -24 -20 -30 0 -13 37 -50 50 -50 13 0 50 37
50 50 0 13 -37 50 -50 50 -5 0 -19 -9 -30 -20z"/>
<path d="M3370 290 c-11 -11 -20 -24 -20 -30 0 -13 37 -50 50 -50 13 0 50 37
50 50 0 13 -37 50 -50 50 -5 0 -19 -9 -30 -20z"/>
<path d="M3770 290 c-11 -11 -20 -24 -20 -30 0 -13 37 -50 50 -50 13 0 50 37
50 50 0 13 -37 50 -50 50 -5 0 -19 -9 -30 -20z"/>
<path d="M4170 290 c-11 -11 -20 -24 -20 -30 0 -13 37 -50 50 -50 13 0 50 37
50 50 0 13 -37 50 -50 50 -5 0 -19 -9 -30 -20z"/>
<path d="M4570 290 c-11 -11 -20 -24 -20 -30 0 -13 37 -50 50 -50 13 0 50 37
50 50 0 13 -37 50 -50 50 -5 0 -19 -9 -30 -20z"/>
<path d="M4970 290 c-11 -11 -20 -24 -20 -30 0 -13 37 -50 50 -50 13 0 50 37
50 50 0 13 -37 50 -50 50 -5 0 -19 -9 -30 -20z"/>
<path d="M5370 290 c-11 -11 -20 -24 -20 -30 0 -13 37 -50 50 -50 13 0 50 37
50 50 0 13 -37 50 -50 50 -5 0 -19 -9 -30 -20z"/>
<path d="M5770 290 c-11 -11 -20 -24 -20 -30 0 -13 37 -50 50 -50 13 0 50 37
50 50 0 13 -37 50 -50 50 -5 0 -19 -9 -30 -20z"/>
</g>
</svg>
